<svg width="33" height="23" viewBox="0 0 33 23" fill="none" xmlns="http://www.w3.org/2000/svg">
<rect x="1.36328" y="0.5" width="30.8007" height="21.5366" rx="2" fill="#1F72CD" stroke="#D9D9D9"/>
<path fill-rule="evenodd" clip-rule="evenodd" d="M6.59322 7.9165L3.62842 14.8967H7.1777L7.6177 13.7838H8.62346L9.06347 14.8967H12.9702V14.0473L13.3183 14.8967H15.3392L15.6873 14.0293V14.8967H23.8123L24.8003 13.8127L25.7254 14.8967L29.8986 14.9057L26.9244 11.4261L29.8986 7.9165H25.7901L24.8284 8.9805L23.9324 7.9165H15.0935L14.3345 9.71815L13.5577 7.9165H10.0158V8.73703L9.62181 7.9165H6.59322ZM18.7262 8.9077H23.392L24.819 10.5477L26.2921 8.9077H27.7191L25.5509 11.4251L27.7191 13.9135H26.2273L24.8003 12.2545L23.3198 13.9135H18.7262V8.9077ZM19.8785 10.8591V9.94477V9.94389H22.7898L24.0601 11.4062L22.7335 12.8764H19.8785V11.8782H22.4239V10.8591H19.8785ZM7.27994 8.9077H9.01003L10.9766 13.641V8.9077H12.8718L14.3907 12.3015L15.7906 8.9077H17.6764V13.9164H16.5289L16.5196 9.99162L14.8467 13.9164H13.8203L12.138 9.99162V13.9164H9.77747L9.32995 12.7936H6.91217L6.46558 13.9155H5.20082L7.27994 8.9077ZM7.32502 11.7555L8.12158 9.75516L8.91722 11.7555H7.32502Z" fill="white"/>
</svg>
