<svg width="12" height="12" viewBox="0 0 12 12" fill="none" xmlns="http://www.w3.org/2000/svg">
<path d="M4.40623 3.36255L3.61642 2.01834C3.46204 1.75561 3.12705 1.66584 2.87641 1.83917C2.38327 2.1802 1.64831 2.77847 1.46547 3.41812C1.18166 4.41105 2.20478 6.77573 3.5958 8.16677C4.98685 9.55785 7.23092 10.4602 8.22389 10.1765C8.8635 9.9938 9.4619 9.25911 9.80307 8.76608C9.9765 8.51544 9.88676 8.18036 9.62397 8.02595L8.27973 7.23612C8.02472 7.08629 7.69719 7.16027 7.53134 7.40517L7.1618 7.95087C7.00186 8.18705 6.69138 8.26283 6.45245 8.10704C6.06762 7.85612 5.46864 7.42129 4.84468 6.79733C4.2208 6.17345 3.786 5.57454 3.53507 5.18971C3.37923 4.95072 3.45509 4.64016 3.69139 4.48026L4.23701 4.11105C4.48203 3.94526 4.5561 3.61763 4.40623 3.36255Z" stroke="#249587" stroke-width="0.8"/>
</svg>
