<svg width="28" height="28" viewBox="0 0 28 28" fill="none" xmlns="http://www.w3.org/2000/svg">
<circle cx="14" cy="14" r="14" fill="#249587"/>
<g clip-path="url(#clip0_716_744)">
<path d="M19.1593 10.2155L12.2498 17.1245C12.2034 17.1711 12.1482 17.2081 12.0874 17.2334C12.0266 17.2587 11.9614 17.2716 11.8956 17.2716C11.8297 17.2716 11.7646 17.2587 11.7038 17.2334C11.643 17.2081 11.5878 17.1711 11.5413 17.1245L8.86932 14.45C8.82286 14.4034 8.76765 14.3664 8.70686 14.3411C8.64607 14.3159 8.58089 14.3029 8.51507 14.3029C8.44924 14.3029 8.38406 14.3159 8.32327 14.3411C8.26248 14.3664 8.20727 14.4034 8.16082 14.45C8.11418 14.4965 8.07717 14.5517 8.05192 14.6125C8.02667 14.6732 8.01367 14.7384 8.01367 14.8043C8.01367 14.8701 8.02667 14.9353 8.05192 14.9961C8.07717 15.0568 8.11418 15.112 8.16082 15.1585L10.8338 17.831C11.1158 18.1125 11.4979 18.2705 11.8963 18.2705C12.2947 18.2705 12.6768 18.1125 12.9588 17.831L19.8678 10.9235C19.9144 10.8771 19.9513 10.8219 19.9765 10.7611C20.0017 10.7004 20.0147 10.6353 20.0147 10.5695C20.0147 10.5037 20.0017 10.4386 19.9765 10.3779C19.9513 10.3171 19.9144 10.2619 19.8678 10.2155C19.8214 10.1689 19.7662 10.1319 19.7054 10.1066C19.6446 10.0814 19.5794 10.0684 19.5136 10.0684C19.4477 10.0684 19.3826 10.0814 19.3218 10.1066C19.261 10.1319 19.2058 10.1689 19.1593 10.2155Z" fill="white"/>
</g>
<defs>
<clipPath id="clip0_716_744">
<rect width="12" height="12" fill="white" transform="translate(8 8)"/>
</clipPath>
</defs>
</svg>
