<svg width="12" height="9" viewBox="0 0 12 9" fill="none" xmlns="http://www.w3.org/2000/svg">
<path d="M11.1593 0.215535L4.24982 7.12453C4.20336 7.17117 4.14815 7.20818 4.08736 7.23343C4.02657 7.25868 3.96139 7.27168 3.89557 7.27168C3.82974 7.27168 3.76456 7.25868 3.70377 7.23343C3.64298 7.20818 3.58777 7.17117 3.54132 7.12453L0.869316 4.45003C0.822862 4.4034 0.767655 4.36639 0.706864 4.34114C0.646072 4.31589 0.580893 4.30289 0.515067 4.30289C0.44924 4.30289 0.384061 4.31589 0.323269 4.34114C0.262478 4.36639 0.207271 4.4034 0.160816 4.45003C0.114178 4.49649 0.0771718 4.5517 0.051921 4.61249C0.0266702 4.67328 0.0136719 4.73846 0.0136719 4.80428C0.0136719 4.87011 0.0266702 4.93529 0.051921 4.99608C0.0771718 5.05687 0.114178 5.11208 0.160816 5.15854L2.83382 7.83103C3.11579 8.11248 3.49792 8.27056 3.89632 8.27056C4.29472 8.27056 4.67684 8.11248 4.95882 7.83103L11.8678 0.923535C11.9144 0.877089 11.9513 0.821913 11.9765 0.761168C12.0017 0.700423 12.0147 0.635302 12.0147 0.569535C12.0147 0.503767 12.0017 0.438646 11.9765 0.377901C11.9513 0.317156 11.9144 0.26198 11.8678 0.215535C11.8214 0.168896 11.7662 0.13189 11.7054 0.106639C11.6446 0.0813883 11.5794 0.0683899 11.5136 0.0683899C11.4477 0.0683899 11.3826 0.0813883 11.3218 0.106639C11.261 0.13189 11.2058 0.168896 11.1593 0.215535Z" fill="white"/>
</svg>
