<svg width="32" height="23" viewBox="0 0 32 23" fill="none" xmlns="http://www.w3.org/2000/svg">
<rect x="0.5625" y="0.5" width="30.8007" height="21.5366" rx="2" fill="white" stroke="#D9D9D9"/>
<path d="M12.9902 21.1748L30.5037 15.7754V19.6248C30.5037 20.4808 29.8097 21.1748 28.9537 21.1748H12.9902Z" fill="#FD6020"/>
<path fill-rule="evenodd" clip-rule="evenodd" d="M27.1563 8.55525C28.1198 8.55525 28.6497 9.00931 28.6497 9.86698C28.6979 10.5228 28.2643 11.0778 27.6862 11.1787L28.9869 13.0454H27.9752L26.8672 11.2292H26.7709V13.0454H25.9519V8.55525H27.1563ZM26.7709 10.6238H27.0117C27.5417 10.6238 27.7825 10.3715 27.7825 9.91745C27.7825 9.51384 27.5417 9.26158 27.0117 9.26158H26.7709V10.6238ZM23.1095 13.0454H25.422V12.2886H23.9285V11.0778H25.3738V10.321H23.9285V9.31202H25.422V8.55525H23.1095V13.0454ZM20.7007 11.5823L19.5927 8.55525H18.7255L20.508 13.1463H20.9416L22.7241 8.55525H21.8569L20.7007 11.5823ZM10.9211 10.8256C10.9211 12.0868 11.8846 13.1463 13.089 13.1463C13.4744 13.1463 13.8117 13.0454 14.1489 12.894V11.885C13.908 12.1877 13.5708 12.3895 13.1854 12.3895C12.4146 12.3895 11.7883 11.7841 11.7883 10.9769V10.876C11.7401 10.0688 12.3664 9.36248 13.1372 9.31203C13.5226 9.31203 13.908 9.51383 14.1489 9.81653V8.80752C13.8598 8.60571 13.4744 8.55526 13.1372 8.55526C11.8846 8.45436 10.9211 9.51383 10.9211 10.8256ZM9.42769 10.2706C8.94593 10.0688 8.80141 9.96789 8.80141 9.71563C8.84958 9.41293 9.09046 9.16067 9.37951 9.21112C9.62039 9.21112 9.86127 9.36248 10.054 9.56428L10.4875 8.95887C10.1503 8.65616 9.71674 8.45436 9.28316 8.45436C8.6087 8.40391 8.0306 8.95887 7.98242 9.66518V9.71563C7.98242 10.321 8.2233 10.6742 8.99411 10.9265C9.18681 10.9769 9.37951 11.0778 9.57221 11.1787C9.71674 11.2796 9.81309 11.431 9.81309 11.6328C9.81309 11.9859 9.52404 12.2886 9.23499 12.2886H9.18681C8.80141 12.2886 8.46418 12.0364 8.31965 11.6832L7.78972 12.2382C8.07877 12.7931 8.65688 13.0958 9.23499 13.0958C10.0058 13.1463 10.6321 12.5409 10.6803 11.7337V11.5823C10.6321 10.9769 10.3912 10.6742 9.42769 10.2706ZM6.63351 13.0454H7.45249V8.55525H6.63351V13.0454ZM2.82764 8.55527H4.03202H4.2729C5.42911 8.60572 6.34445 9.61474 6.29627 10.8256C6.29627 11.4814 6.00722 12.0868 5.52546 12.5409C5.09188 12.8941 4.56195 13.0959 4.03202 13.0454H2.82764V8.55527ZM3.8875 12.2886C4.27291 12.3391 4.70649 12.1877 4.99554 11.9355C5.28459 11.6328 5.42912 11.2292 5.42912 10.7751C5.42912 10.3715 5.28459 9.96788 4.99554 9.66518C4.70649 9.41292 4.27291 9.26157 3.8875 9.31202H3.64663V12.2886H3.8875Z" fill="black"/>
<path fill-rule="evenodd" clip-rule="evenodd" d="M16.6057 8.45117C15.4013 8.45117 14.3896 9.46019 14.3896 10.7719C14.3896 12.0332 15.3532 13.0927 16.6057 13.1431C17.8583 13.1936 18.8218 12.1341 18.87 10.8224C18.8218 9.51064 17.8583 8.45117 16.6057 8.45117V8.45117Z" fill="#FD6020"/>
</svg>
