<svg width="18" height="19" viewBox="0 0 18 19" fill="none" xmlns="http://www.w3.org/2000/svg">
<g clip-path="url(#clip0_716_612)">
<path d="M15.75 4.92212H13.5C13.5 3.72864 13.0259 2.58405 12.182 1.74014C11.3381 0.896225 10.1935 0.422119 9 0.422119C7.80653 0.422119 6.66193 0.896225 5.81802 1.74014C4.97411 2.58405 4.5 3.72864 4.5 4.92212H2.25C1.65326 4.92212 1.08097 5.15917 0.65901 5.58113C0.237053 6.00309 0 6.57538 0 7.17212L0 14.6721C0.00119089 15.6663 0.396661 16.6195 1.09966 17.3225C1.80267 18.0255 2.7558 18.4209 3.75 18.4221H14.25C15.2442 18.4209 16.1973 18.0255 16.9003 17.3225C17.6033 16.6195 17.9988 15.6663 18 14.6721V7.17212C18 6.57538 17.7629 6.00309 17.341 5.58113C16.919 5.15917 16.3467 4.92212 15.75 4.92212ZM9 1.92212C9.79565 1.92212 10.5587 2.23819 11.1213 2.8008C11.6839 3.36341 12 4.12647 12 4.92212H6C6 4.12647 6.31607 3.36341 6.87868 2.8008C7.44129 2.23819 8.20435 1.92212 9 1.92212ZM16.5 14.6721C16.5 15.2689 16.2629 15.8412 15.841 16.2631C15.419 16.6851 14.8467 16.9221 14.25 16.9221H3.75C3.15326 16.9221 2.58097 16.6851 2.15901 16.2631C1.73705 15.8412 1.5 15.2689 1.5 14.6721V7.17212C1.5 6.97321 1.57902 6.78244 1.71967 6.64179C1.86032 6.50114 2.05109 6.42212 2.25 6.42212H4.5V7.92212C4.5 8.12103 4.57902 8.3118 4.71967 8.45245C4.86032 8.5931 5.05109 8.67212 5.25 8.67212C5.44891 8.67212 5.63968 8.5931 5.78033 8.45245C5.92098 8.3118 6 8.12103 6 7.92212V6.42212H12V7.92212C12 8.12103 12.079 8.3118 12.2197 8.45245C12.3603 8.5931 12.5511 8.67212 12.75 8.67212C12.9489 8.67212 13.1397 8.5931 13.2803 8.45245C13.421 8.3118 13.5 8.12103 13.5 7.92212V6.42212H15.75C15.9489 6.42212 16.1397 6.50114 16.2803 6.64179C16.421 6.78244 16.5 6.97321 16.5 7.17212V14.6721Z" fill="white"/>
</g>
<defs>
<clipPath id="clip0_716_612">
<rect width="18" height="18" fill="white" transform="translate(0 0.422119)"/>
</clipPath>
</defs>
</svg>
