<svg width="18" height="19" viewBox="0 0 18 19" fill="none" xmlns="http://www.w3.org/2000/svg">
<g clip-path="url(#clip0_716_618)">
<path d="M9 9.42206C9.89002 9.42206 10.76 9.15814 11.5001 8.66367C12.2401 8.16921 12.8169 7.4664 13.1575 6.64414C13.4981 5.82187 13.5872 4.91707 13.4135 4.04415C13.2399 3.17124 12.8113 2.36942 12.182 1.74008C11.5526 1.11074 10.7508 0.68216 9.87791 0.508526C9.00499 0.334893 8.10019 0.424008 7.27792 0.764602C6.45566 1.1052 5.75285 1.68197 5.25839 2.42199C4.76392 3.16202 4.5 4.03204 4.5 4.92206C4.50119 6.11517 4.97568 7.25907 5.81934 8.10273C6.66299 8.94638 7.80689 9.42087 9 9.42206ZM9 1.92206C9.59334 1.92206 10.1734 2.09801 10.6667 2.42765C11.1601 2.7573 11.5446 3.22583 11.7716 3.77401C11.9987 4.32219 12.0581 4.92539 11.9424 5.50733C11.8266 6.08927 11.5409 6.62382 11.1213 7.04338C10.7018 7.46294 10.1672 7.74866 9.58527 7.86442C9.00333 7.98017 8.40013 7.92076 7.85195 7.6937C7.30377 7.46664 6.83524 7.08212 6.50559 6.58877C6.17595 6.09542 6 5.5154 6 4.92206C6 4.12641 6.31607 3.36335 6.87868 2.80074C7.44129 2.23813 8.20435 1.92206 9 1.92206Z" fill="#249587"/>
<path d="M9 10.9226C7.2104 10.9246 5.49466 11.6364 4.22922 12.9018C2.96378 14.1673 2.25199 15.883 2.25 17.6726C2.25 17.8715 2.32902 18.0623 2.46967 18.2029C2.61032 18.3436 2.80109 18.4226 3 18.4226C3.19891 18.4226 3.38968 18.3436 3.53033 18.2029C3.67098 18.0623 3.75 17.8715 3.75 17.6726C3.75 16.2802 4.30312 14.9449 5.28769 13.9603C6.27226 12.9757 7.60761 12.4226 9 12.4226C10.3924 12.4226 11.7277 12.9757 12.7123 13.9603C13.6969 14.9449 14.25 16.2802 14.25 17.6726C14.25 17.8715 14.329 18.0623 14.4697 18.2029C14.6103 18.3436 14.8011 18.4226 15 18.4226C15.1989 18.4226 15.3897 18.3436 15.5303 18.2029C15.671 18.0623 15.75 17.8715 15.75 17.6726C15.748 15.883 15.0362 14.1673 13.7708 12.9018C12.5053 11.6364 10.7896 10.9246 9 10.9226Z" fill="#249587"/>
</g>
<defs>
<clipPath id="clip0_716_618">
<rect width="18" height="18" fill="white" transform="translate(0 0.422119)"/>
</clipPath>
</defs>
</svg>
