<svg width="18" height="19" viewBox="0 0 18 19" fill="none" xmlns="http://www.w3.org/2000/svg">
<g clip-path="url(#clip0_716_614)">
<path d="M17.7798 17.1424L13.3031 12.6656C14.5231 11.1736 15.1229 9.2697 14.9785 7.3478C14.8341 5.4259 13.9565 3.63303 12.5273 2.34002C11.0981 1.04701 9.22654 0.352796 7.29982 0.40097C5.37311 0.449144 3.53862 1.23602 2.1758 2.59884C0.812985 3.96165 0.0261092 5.79615 -0.0220646 7.72286C-0.0702385 9.64957 0.623975 11.5211 1.91698 12.9503C3.20999 14.3795 5.00287 15.2571 6.92476 15.4015C8.84666 15.5459 10.7505 14.9461 12.2426 13.7261L16.7193 18.2029C16.8608 18.3395 17.0502 18.4151 17.2469 18.4134C17.4435 18.4117 17.6317 18.3328 17.7707 18.1937C17.9098 18.0547 17.9886 17.8666 17.9904 17.6699C17.9921 17.4733 17.9165 17.2838 17.7798 17.1424ZM7.49959 13.9226C6.3129 13.9226 5.15287 13.5707 4.16617 12.9114C3.17948 12.2522 2.41044 11.3151 1.95632 10.2187C1.50219 9.12237 1.38337 7.91597 1.61488 6.75209C1.84639 5.5882 2.41784 4.5191 3.25695 3.67999C4.09607 2.84087 5.16516 2.26943 6.32905 2.03792C7.49294 1.8064 8.69934 1.92522 9.79569 2.37935C10.892 2.83348 11.8291 3.60251 12.4884 4.58921C13.1477 5.5759 13.4996 6.73594 13.4996 7.92263C13.4978 9.51338 12.8651 11.0385 11.7403 12.1633C10.6154 13.2881 9.09034 13.9208 7.49959 13.9226Z" fill="#249587"/>
</g>
<defs>
<clipPath id="clip0_716_614">
<rect width="18" height="18" fill="white" transform="translate(0 0.422119)"/>
</clipPath>
</defs>
</svg>
