<svg width="170" height="64" viewBox="0 0 170 64" fill="none" xmlns="http://www.w3.org/2000/svg">
<path d="M6.42634 48.0874C5.86938 47.294 5.39106 46.4472 4.99828 45.5592C3.53566 42.0491 2.46414 38.3855 1.8035 34.636C0.677473 28.4804 0.0741145 22.2389 0 15.9795C0 14.656 0.30917 13.4514 1.3103 13.4514C1.46355 13.4401 1.61747 13.461 1.76232 13.5128C1.90717 13.5646 2.03982 13.6462 2.15188 13.7524C2.26394 13.8586 2.35299 13.9871 2.41339 14.1298C2.47379 14.2726 2.50425 14.4264 2.50282 14.5816C2.92241 23.1328 3.34936 29.312 5.23383 37.5508C5.73719 40.0266 6.43378 42.4583 7.31706 44.823C7.69984 45.7525 7.85443 46.9199 8.7893 46.9571C9.72418 46.9943 9.94501 45.7525 10.3646 44.9792C11.9841 41.7521 13.0588 38.287 14.2955 34.8665L26.3016 1.55408C26.493 1.01127 26.6035 0 27.104 0C27.6046 0.118973 27.7592 0.27512 27.7592 0.587424C27.6539 1.0533 27.4722 1.49814 27.2218 1.90356C23.8356 11.7436 20.4225 21.5787 16.9823 31.4088C15.5101 35.6844 14.0967 39.9972 12.5656 44.2802C11.7632 46.801 10.2984 49.4109 8.56846 49.4109C8.12434 49.3769 7.69398 49.2398 7.31094 49.0102C6.92789 48.7806 6.60249 48.4648 6.3601 48.0874" fill="#3D2B7D"/>
<path d="M32.3453 37.8853C31.9993 37.4615 31.8005 36.3312 31.8005 34.4277C31.8461 32.3981 32.0009 30.3726 32.2643 28.3601L31.3441 29.4903C30.6865 30.4817 29.6093 32.3853 28.1126 35.201C27.7863 35.9047 27.3289 36.5384 26.7655 37.0674C26.3294 37.5541 25.7212 37.848 25.0724 37.8853C24.3362 37.8853 23.8357 37.3797 23.4529 36.3312C23.2552 35.6042 23.1512 34.8544 23.1437 34.1005C23.1381 33.128 23.2669 32.1594 23.5265 31.2228C23.7253 30.4793 24.0712 30.1372 24.5276 30.1372C25.1828 30.2562 25.492 30.5611 25.492 31.0667C25.443 31.5688 25.3544 32.0661 25.227 32.5539C25.0306 33.1811 24.9385 33.8369 24.9546 34.4946C24.9736 35.0384 25.1172 35.5704 25.3742 36.0487C26.0477 35.7565 26.5941 35.2284 26.9127 34.5615C26.9629 34.4365 27.0298 34.3189 27.1114 34.212L28.7235 31.5649C29.6578 29.9866 30.7268 28.4938 31.9183 27.1034C32.5367 26.3598 33.074 25.9806 33.5378 25.9806C33.78 26.0441 33.9927 26.191 34.1392 26.396C34.2857 26.601 34.3568 26.8512 34.3402 27.1034C34.3296 27.4843 34.2803 27.863 34.1929 28.2336C34.1488 28.9326 34.0383 29.7208 33.9206 30.6429C33.7058 32.0456 33.5902 33.462 33.5746 34.8813C33.5672 35.2559 33.5795 35.6307 33.6114 36.0041C34.8482 34.2402 35.9908 32.4109 37.0344 30.5239C37.3067 30.0182 37.5349 29.6316 37.6895 29.4011C38.3078 28.3898 38.8452 27.9139 39.309 27.9139C39.7727 27.9139 40.0451 28.2262 40.2659 28.8062C40.3468 29.0965 40.3864 29.3969 40.3837 29.6985V29.9736C40.4177 30.2199 40.43 30.4687 40.4205 30.7172C40.4647 31.4608 40.4647 32.1151 40.5015 32.7323C40.5383 33.3495 40.5751 33.9815 40.6561 34.4872C40.664 34.8389 40.7855 35.1783 41.0021 35.4538C41.2303 35.0672 41.5394 34.5243 41.8854 33.8254C43.6153 30.1075 45.117 28.2262 46.3021 28.0701C46.4742 28.0915 46.6395 28.1514 46.7859 28.2453C46.9323 28.3391 47.0562 28.4647 47.1487 28.6129C47.4895 29.1109 47.7993 29.63 48.0762 30.167C48.6689 31.2251 49.4677 32.1509 50.4244 32.8885C51.187 33.5471 52.1523 33.9177 53.1554 33.9369C53.6321 33.9279 54.1023 33.8243 54.5393 33.632C54.6514 33.5923 54.7674 33.5649 54.8853 33.5503C55.0399 33.5503 55.1135 33.632 55.2313 33.8254C55.2361 33.9088 55.2099 33.991 55.1577 34.0559C55.0853 34.1525 54.9922 34.2313 54.8853 34.2864C54.2165 34.6874 53.4547 34.9028 52.677 34.911C50.4686 34.911 48.3633 33.1636 46.2874 29.6241C45.8637 29.9499 45.5105 30.3599 45.2495 30.8288C44.3499 32.153 43.5266 33.5284 42.7835 34.9482C41.9001 36.703 41.1714 37.5953 40.5162 37.5953C39.8611 37.5953 39.4341 37.0525 39.1323 35.9223C38.8303 34.8471 38.6622 33.738 38.6317 32.6208V30.39C37.7178 31.576 36.9075 32.8399 36.2099 34.1674L34.399 37.3871C34.1267 37.9746 33.7807 38.2869 33.2801 38.2869C32.9282 38.283 32.5922 38.1386 32.3453 37.8853ZM24.1817 24.0473C24.2626 23.5417 24.5276 23.3037 24.9546 23.3037C25.3815 23.3037 25.5288 23.4599 25.5729 23.7722C25.6171 24.0845 25.3374 24.315 24.8368 24.3893C24.3363 24.4637 24.1817 24.2704 24.1817 24.0399" fill="#3D2B7D"/>
<path d="M75.2614 36.1905C74.2995 36.1814 73.3534 35.9418 72.5009 35.4916C71.9498 36.0757 71.2842 36.5374 70.5465 36.8472C69.8089 37.1571 69.0154 37.3082 68.2167 37.291C67.2881 37.3407 66.3745 37.0384 65.655 36.4433C65.3464 36.155 65.1042 35.8018 64.9452 35.4087C64.7862 35.0156 64.7144 34.5921 64.7348 34.168C64.7213 33.4246 64.9839 32.703 65.471 32.1454C65.9229 31.6025 66.4662 31.1444 67.0757 30.7921C67.672 30.4649 68.3271 30.1452 69.0559 29.8329C69.108 28.9464 69.32 28.077 69.6816 27.2675C70.0269 26.4491 70.527 25.7065 71.1538 25.0814C71.3812 24.8221 71.6582 24.612 71.9682 24.4637C72.2782 24.3155 72.6146 24.2322 72.9573 24.2189C73.3096 24.1993 73.6556 24.3193 73.9216 24.5535C74.0437 24.678 74.1383 24.8271 74.1992 24.9912C74.2601 25.1552 74.2859 25.3304 74.275 25.5053C74.237 25.9843 74.1056 26.451 73.8883 26.8785C73.671 27.306 73.3721 27.6859 73.0089 27.9963C72.1423 28.8832 71.1499 29.635 70.0644 30.227C70.0875 31.0667 70.3424 31.8831 70.8005 32.5842C71.2426 33.2998 71.8421 33.9028 72.5525 34.3464C72.838 34.0248 73.085 33.6704 73.2886 33.2906C73.4873 32.9113 73.664 32.547 73.8333 32.1008C73.9591 31.8086 74.0648 31.508 74.1498 31.2011C74.1632 31.091 74.1829 30.9817 74.2087 30.8739C74.2273 30.7685 74.2595 30.666 74.3044 30.569C74.3044 30.4947 74.3854 30.4649 74.4369 30.4649C74.4885 30.4649 74.5989 30.5319 74.6725 30.6657C74.7344 30.7774 74.7696 30.9022 74.7756 31.0301C74.7411 31.512 74.6343 31.9859 74.459 32.4354C74.2831 32.9956 74.0513 33.5362 73.7671 34.049C73.5904 34.3762 73.4358 34.629 73.3107 34.7926C73.9866 35.0826 74.7112 35.2391 75.4454 35.2536C75.7817 35.2705 76.1164 35.1968 76.4152 35.04C76.714 34.8832 76.9662 34.649 77.1459 34.3613C77.5555 33.7007 77.8494 32.9738 78.0145 32.2124C78.0587 32.0711 78.0955 31.9595 78.1323 31.8629C78.1691 31.7662 78.2059 31.729 78.2427 31.729C78.2744 31.7293 78.3058 31.736 78.3349 31.7488C78.3639 31.7615 78.3902 31.7801 78.412 31.8034C78.4368 31.8211 78.457 31.8445 78.4711 31.8716C78.4852 31.8988 78.4927 31.9289 78.493 31.9595C78.4762 32.5112 78.3896 33.0585 78.2353 33.588C78.0573 34.2578 77.7271 34.8765 77.271 35.3949C77.0361 35.6647 76.7441 35.8777 76.4166 36.018C76.0891 36.1583 75.7345 36.2223 75.3792 36.2054M69.1516 30.7326L68.2903 31.0821C67.7179 31.3495 67.2142 31.7464 66.8181 32.2421C66.3499 32.7521 66.0874 33.4204 66.0819 34.1159C66.068 34.4005 66.1139 34.6848 66.2167 34.9501C66.3194 35.2155 66.4767 35.4557 66.6782 35.6551C67.1942 36.0759 67.8502 36.2808 68.5112 36.2277C69.1349 36.2392 69.7549 36.128 70.3367 35.9005C70.8658 35.6793 71.3614 35.3839 71.809 35.0231C71.0514 34.5248 70.3985 33.8805 69.8877 33.127C69.409 32.4082 69.1155 31.5801 69.0338 30.7178M72.8764 24.9773C72.6053 25.0011 72.3426 25.0838 72.1063 25.2199C71.8699 25.356 71.6655 25.5421 71.5072 25.7655C71.0407 26.3226 70.6632 26.9498 70.3883 27.6245C70.1381 28.1749 69.9909 28.7674 69.9539 29.3719C70.7992 28.8653 71.5761 28.2504 72.2654 27.5427C72.8844 27.0389 73.2899 26.3155 73.399 25.5201C73.4049 25.3802 73.3604 25.2429 73.2739 25.1335C73.2241 25.0782 73.1623 25.0353 73.0933 25.0082C73.0243 24.9811 72.9501 24.9705 72.8764 24.9773Z" fill="#3D2B7D"/>
<path d="M92.5084 48.0874C91.9514 47.294 91.4731 46.4472 91.0803 45.5592C89.6177 42.0491 88.5462 38.3855 87.8855 34.636C86.7559 28.4809 86.1525 22.2391 86.082 15.9795C86.082 14.656 86.3838 13.4514 87.385 13.4514C87.5385 13.4389 87.6929 13.459 87.8382 13.5104C87.9836 13.5618 88.1167 13.6433 88.229 13.7498C88.3413 13.8562 88.4303 13.9852 88.4903 14.1285C88.5503 14.2717 88.58 14.4261 88.5775 14.5816C89.0044 23.1328 89.424 29.312 91.3159 37.5508C91.8168 40.0264 92.5109 42.4581 93.3917 44.823C93.7745 45.7525 93.9291 46.9199 94.864 46.9571C95.7988 46.9943 96.0197 45.7525 96.4393 44.9792C97.9475 41.6912 99.2578 38.3141 100.363 34.8665L112.369 1.55408C112.56 1.01127 112.678 0 113.179 0C113.679 0.118973 113.834 0.27512 113.834 0.587424C113.729 1.0533 113.547 1.49814 113.296 1.90356C109.91 11.7436 106.497 21.5787 103.057 31.4088C101.585 35.6844 100.171 39.9972 98.6403 44.2802C97.8305 46.801 96.373 49.4109 94.6431 49.4109C94.199 49.3769 93.7687 49.2398 93.3856 49.0102C93.0026 48.7806 92.6772 48.4648 92.4348 48.0874" fill="#3D2B7D"/>
<path d="M110.374 38.3683C109.955 37.8521 109.676 37.2345 109.564 36.5763C109.392 35.7854 109.31 34.9769 109.321 34.1671C109.345 32.9072 109.538 31.6564 109.896 30.4492C109.971 30.2489 110.062 30.055 110.168 29.8692C110.25 29.7044 110.377 29.5663 110.533 29.4704C110.689 29.3744 110.869 29.3246 111.051 29.3264H111.28C111.501 29.3664 111.699 29.4886 111.835 29.6689C111.971 29.8492 112.036 30.0745 112.016 30.3005L111.626 32.903C111.626 33.5648 111.552 34.3009 111.552 35.0817C111.54 35.5489 111.565 36.0163 111.626 36.4796C111.78 37.1786 111.972 37.4909 112.362 37.4909C112.675 37.4496 112.968 37.312 113.201 37.0968C113.937 36.554 114.629 35.9368 115.321 35.3122C116.551 34.2266 117.787 33.0814 119.054 31.9661C119.258 31.6768 119.559 31.471 119.9 31.3861C120.04 31.4002 120.173 31.4544 120.283 31.5422V31.8545L119.709 32.5163C117.979 34.2637 116.286 35.974 114.511 37.6842C114.043 38.1514 113.527 38.5677 112.973 38.926C112.659 39.1173 112.301 39.2247 111.935 39.2383C111.643 39.2105 111.361 39.1198 111.107 38.9723C110.853 38.8248 110.633 38.6239 110.462 38.3832M111.736 25.9431C111.641 25.9433 111.548 25.9238 111.461 25.8859C111.374 25.8481 111.295 25.7925 111.23 25.7228C111.166 25.6531 111.116 25.5707 111.083 25.4807C111.051 25.3907 111.038 25.295 111.044 25.1995V25.1177C111.044 25.0141 111.065 24.9117 111.106 24.8168C111.147 24.7219 111.207 24.6367 111.283 24.5667C111.358 24.4967 111.447 24.4435 111.544 24.4103C111.641 24.3771 111.744 24.3648 111.846 24.3741C112.034 24.3855 112.21 24.4688 112.339 24.6071C112.467 24.7453 112.539 24.928 112.538 25.1177C112.538 25.6159 112.266 25.8613 111.846 25.8613L111.736 25.9431Z" fill="#3D2B7D"/>
<path d="M117.287 62.3119C117.165 61.8254 117.098 61.3265 117.088 60.8248C117.109 59.9716 117.225 59.1235 117.434 58.2966C118.147 55.3126 119.36 52.4734 121.019 49.9016C122.557 47.5295 124.096 45.2021 125.708 42.8673C126.282 42.0898 126.606 41.1527 126.635 40.183C126.635 39.2163 126.709 38.2794 126.709 37.3499C126.734 36.1371 126.645 34.9246 126.444 33.7287C126.253 32.6431 125.98 32.2415 125.708 32.2415C125.436 32.2415 124.788 32.8959 124.096 33.6395C123.249 34.5318 122.476 35.5058 121.63 36.361C121.441 36.5655 121.213 36.7295 120.96 36.8432C120.707 36.9569 120.434 37.018 120.158 37.0227C119.164 37.0227 118.391 36.2048 118.391 34.9184C118.382 33.7746 118.603 32.6408 119.039 31.5853C119.476 30.5298 120.119 29.5744 120.93 28.7764C121.077 28.6088 121.255 28.4729 121.455 28.377C121.655 28.2812 121.872 28.2273 122.094 28.2188C122.379 28.2244 122.659 28.3065 122.903 28.4567C123.03 28.5723 123.128 28.717 123.188 28.8788C123.249 29.0406 123.27 29.2146 123.249 29.3862V29.8174C123.249 30.1223 123.131 30.4718 122.785 30.561C120.71 31.3046 120.4 33.3569 120.364 35.1489C121.166 34.1748 124.324 30.0554 126.444 29.9439H126.672C127.673 29.9439 128.402 30.4495 128.947 31.7359C129.359 32.8948 129.566 34.1181 129.558 35.3497V37.4094C129.964 37.1881 130.33 36.899 130.64 36.5543C131.98 35.1935 134.446 32.591 136.257 31.892C136.445 31.7697 136.655 31.6839 136.875 31.6392C136.953 31.6446 137.028 31.6737 137.09 31.7228C137.152 31.7719 137.197 31.8386 137.221 31.9143C137.256 31.9722 137.271 32.0401 137.265 32.1077C137.265 32.3828 136.956 32.4943 136.764 32.5761C134.225 33.8997 131.722 36.8889 129.948 38.9858C129.456 39.6218 129.196 40.4096 129.212 41.2165C128.597 46.7024 127.17 52.0639 124.979 57.1217C124.255 58.888 123.297 60.5466 122.13 62.0517C121.622 62.7474 120.965 63.3191 120.209 63.7247C119.875 63.9011 119.504 63.9953 119.127 63.9999C118.682 63.9736 118.259 63.7928 117.93 63.4879C117.601 63.1831 117.387 62.7729 117.323 62.3268M120.165 61.3155C120.959 60.3973 121.61 59.3617 122.094 58.2445C123.768 54.699 124.983 50.9502 125.708 47.0908C125.874 46.5877 125.978 46.0657 126.017 45.5367C126.013 45.2373 125.95 44.9417 125.833 44.6668C124.425 46.6109 123.127 48.6342 121.946 50.7269C120.29 53.4113 118.634 56.8317 118.634 60.215L118.678 60.914C118.678 61.3378 118.906 61.8881 119.333 61.8881C119.76 61.8881 119.87 61.5758 120.135 61.3007" fill="#3D2B7D"/>
<path d="M148.108 40.9711C147.526 40.9711 147.298 40.5027 147.217 39.997C147.043 39.101 146.927 38.1943 146.871 37.283C146.797 34.7176 146.797 32.0779 146.761 29.5423C146.716 28.7987 146.415 28.4195 145.759 28.4195C145.134 28.4673 144.522 28.6232 143.949 28.8805C141.74 29.5423 140.445 30.0479 140.334 30.4346C140.288 30.5057 140.26 30.5876 140.253 30.6725C140.29 30.8923 140.37 31.1022 140.489 31.2897C140.821 32.2659 140.987 33.2915 140.982 34.3235C140.951 35.9541 140.613 37.5639 139.988 39.0676C139.635 39.9227 139.142 40.7778 138.096 40.7778C137.051 40.7778 136.33 40.0342 135.888 39.0676C135.59 38.3924 135.425 37.665 135.402 36.926C135.365 36.5022 135.329 36.0709 135.329 35.6471C135.315 34.0348 135.615 32.4356 136.212 30.9402C136.786 29.3861 137.176 29.1184 138.943 29.1184C140.135 29.1184 141.328 28.4938 142.565 28.2187C142.984 28.1072 146.871 26.8654 147.18 26.8654C148.255 26.8654 148.755 27.4826 148.947 28.9623C148.991 29.349 148.991 30.0479 148.991 30.7915V33.0817C148.964 33.5787 148.989 34.0771 149.065 34.5689C150.64 32.0407 155.182 24.9023 158.494 24.9023C158.69 24.9023 158.877 24.9807 159.015 25.1201C159.153 25.2596 159.23 25.4487 159.23 25.6459C159.232 25.7279 159.218 25.8094 159.188 25.8856C159.158 25.9618 159.113 26.0311 159.056 26.0894C158.999 26.1477 158.931 26.1938 158.856 26.2249C158.781 26.256 158.701 26.2716 158.619 26.2705C154.306 26.9695 149.536 35.9891 149.05 39.9524C148.976 40.4952 148.822 40.9637 148.203 40.9637L148.108 40.9711ZM139.333 34.212C139.346 33.1441 139.052 32.0954 138.487 31.193C137.993 32.6734 137.72 34.2196 137.677 35.7809C137.684 36.6841 137.801 37.583 138.023 38.4578C138.859 37.2067 139.314 35.7361 139.333 34.2268" fill="#3D2B7D"/>
<path d="M166.651 15.6456C167.388 15.6475 168.095 15.9443 168.616 16.471C169.138 16.9977 169.432 17.7115 169.434 18.4563C169.434 19.2018 169.14 19.9167 168.619 20.4438C168.097 20.9709 167.389 21.2671 166.651 21.2671C165.913 21.2671 165.205 20.9709 164.683 20.4438C164.161 19.9167 163.868 19.2018 163.868 18.4563C163.868 17.7109 164.161 16.9959 164.683 16.4688C165.205 15.9417 165.913 15.6456 166.651 15.6456ZM166.651 15.0879C165.766 15.0879 164.918 15.4428 164.293 16.0745C163.667 16.7062 163.316 17.563 163.316 18.4563C163.316 19.3497 163.667 20.2064 164.293 20.8381C164.918 21.4699 165.766 21.8247 166.651 21.8247C167.09 21.8267 167.525 21.741 167.932 21.5726C168.338 21.4042 168.707 21.1564 169.019 20.8434C169.33 20.5304 169.577 20.1584 169.745 19.7488C169.914 19.3391 170 18.8999 170 18.4563C170 17.563 169.649 16.7062 169.024 16.0745C168.398 15.4428 167.55 15.0879 166.666 15.0879" fill="#3D2B7D"/>
<path d="M165.105 16.4629C165.507 16.4007 165.913 16.3709 166.319 16.3736C166.785 16.3264 167.253 16.4419 167.644 16.7009C167.77 16.8047 167.869 16.937 167.934 17.0869C168 17.2368 168.029 17.4001 168.02 17.5636C168.016 17.7895 167.944 18.0087 167.812 18.1912C167.68 18.3736 167.496 18.5104 167.284 18.5826C167.427 18.6539 167.552 18.7584 167.648 18.8877C167.744 19.0169 167.808 19.1672 167.836 19.3263C167.926 19.7188 168.036 20.1061 168.167 20.4866H167.217C167.092 20.1765 166.996 19.8553 166.93 19.5271C166.827 19.0139 166.651 18.8726 166.268 18.8652H165.995V20.4866H165.075L165.105 16.4629ZM166.025 18.2404H166.386C166.849 18.2404 167.122 18.0099 167.122 17.6454C167.122 17.281 166.864 17.0727 166.437 17.0653C166.3 17.0553 166.162 17.0553 166.025 17.0653V18.2404Z" fill="#3D2B7D"/>
</svg>
