<svg width="237" height="93" viewBox="0 0 237 93" fill="none" xmlns="http://www.w3.org/2000/svg">
<path d="M23.8267 0.96489C25.3009 0.657602 26.9122 0.930747 28.1121 1.85261C28.7978 2.33062 29.1749 3.11591 29.2435 3.93534C29.3463 4.99378 29.2092 6.05222 28.7978 7.04237C29.0035 5.91565 28.9692 4.65235 28.4207 3.62806C27.9407 2.67205 26.9122 1.98918 25.8494 1.88675C24.5467 1.6819 23.1068 1.9209 22.1126 2.84276C21.3584 3.52563 21.2555 4.58406 20.6041 5.30107C20.4327 4.41335 20.6041 3.45734 21.1527 2.67205C21.7355 1.75018 22.7297 1.13561 23.8267 0.96489Z" fill="#249587"/>
<path d="M11.4505 6.73508C12.2733 6.39365 13.1647 6.18879 14.0561 6.32537C15.2217 6.49608 16.4559 6.93994 17.2444 7.82766C17.93 8.57881 18.17 9.67139 18.1357 10.6615C17.9986 12.7784 16.833 14.6222 15.5302 16.2269C15.0846 17.0463 14.8789 18.0365 15.1188 18.9583C14.9817 19.0266 14.8446 19.0608 14.6732 19.129C14.3646 18.2072 14.4332 17.1829 14.776 16.2952C15.256 14.9977 16.113 13.9051 16.7301 12.7101C17.1758 11.72 17.2444 10.5933 16.9701 9.56896C16.7301 8.68124 16.1473 7.82766 15.2902 7.45209C14.3989 7.07651 13.3704 6.87166 12.3762 7.07651C11.9305 7.17894 11.4505 7.31552 11.1077 7.6228C10.6963 7.99838 10.2849 8.4081 9.73639 8.57881C9.94209 7.72523 10.662 7.07651 11.4505 6.73508Z" fill="#249587"/>
<path d="M26.9808 12.915C27.9064 12.4711 28.0093 11.2761 28.8321 10.7298C28.7978 11.6858 28.3521 12.6077 27.6322 13.2223C26.5694 14.1783 25.0266 14.5197 23.621 14.349C22.9697 14.3149 22.4211 13.8027 22.1469 13.2564C21.7697 12.5394 21.6326 11.7541 21.6669 10.9347C22.284 11.3444 22.4211 12.0956 22.6954 12.7101C22.9697 13.3589 23.7239 13.632 24.3753 13.7003C25.3009 13.7686 26.158 13.3247 26.9808 12.915Z" fill="#249587"/>
<path d="M8.94788 14.2466C9.29071 14.3831 9.56498 14.6904 9.59926 15.066C9.66782 15.6464 9.73639 16.2269 10.0792 16.7049C10.4221 17.217 11.0734 17.4219 11.6562 17.3195C12.3076 17.2512 12.8904 16.978 13.4732 16.6707C13.3361 17.0805 13.0618 17.4219 12.6847 17.5926C11.8277 18.0365 10.7649 18.0023 9.90781 17.5926C9.66782 17.456 9.42784 17.2853 9.32499 17.0122C9.01645 16.1244 9.1193 15.1684 8.94788 14.2466Z" fill="#249587"/>
<path d="M21.9754 14.5539C22.0783 14.4514 22.3183 14.349 22.3526 14.588C22.4211 15.1002 22.0783 15.544 21.7697 15.9196C20.8441 16.978 19.6099 17.6609 18.4786 18.4462C17.3815 19.1973 16.2845 20.0168 15.4959 21.1435C14.8103 22.2361 14.296 23.4652 14.3646 24.7968C14.3989 25.3772 14.6732 25.9235 14.7417 26.504C14.9817 28.3477 14.1932 30.1914 14.5017 32.0352C15.0845 34.8349 15.9759 37.6346 15.9416 40.5027C14.9131 38.4882 14.7074 36.2006 14.0218 34.0496C13.4047 31.7962 14.0218 29.4744 14.0903 27.221C14.0903 25.9235 14.0903 24.6261 14.0903 23.2945C14.0903 21.8264 14.6389 20.3582 15.6331 19.2998C16.1473 18.7535 16.7644 18.3096 17.4158 18.0023C19.1299 17.1829 20.5356 15.8513 21.9754 14.5539Z" fill="#249587"/>
<path d="M28.7978 14.4514C29.6206 14.8612 29.6549 15.9196 30.4091 16.3635C31.6433 17.217 33.2203 17.1829 34.5573 17.7975C35.1744 18.0706 35.5858 18.6169 35.9287 19.1632C36.1344 19.5729 36.2715 20.0168 36.2029 20.4606C35.9972 22.4751 36.7172 24.4554 36.6829 26.504C36.6486 27.4941 36.4772 28.5184 35.8601 29.3037C35.2087 30.1914 34.3174 31.0109 34.1117 32.1376C33.7688 31.8644 33.8374 31.3864 33.9402 31.0109C34.3859 29.9183 35.3458 29.0647 35.5515 27.8697C35.7572 25.1724 35.9972 22.4409 35.3801 19.7778C35.2773 19.2656 34.9002 18.8559 34.4202 18.651C33.9745 18.4462 33.4603 18.4462 32.946 18.412C30.889 18.2413 28.9692 16.5683 28.7978 14.4514Z" fill="#249587"/>
<path d="M9.77067 19.2998C9.83924 20.3241 9.70211 21.3825 9.59926 22.4068C9.42784 23.3287 9.18786 24.2505 8.63933 25.0358C7.47371 26.9137 5.65671 28.2453 4.11397 29.7817C3.8397 30.089 3.66829 30.4646 3.59972 30.8402C3.59972 31.3864 3.87399 31.8644 4.2511 32.2059C4.76535 32.6839 5.27959 33.2302 5.55386 33.913C5.72527 34.3569 5.75955 34.8349 5.55386 35.2446C5.41672 35.1422 5.31388 35.0056 5.24531 34.869C4.76535 33.913 3.90827 33.1619 3.49687 32.1717C3.15404 31.4206 3.11976 30.5329 3.42831 29.7476C3.70257 28.9623 4.31967 28.3477 4.93676 27.8014C5.82812 27.0503 6.78805 26.3333 7.40514 25.3772C8.63933 23.6018 9.18786 21.4166 9.77067 19.2998Z" fill="#249587"/>
<path d="M21.3241 30.0549C21.2898 28.3136 20.3641 26.6064 20.8441 24.8651C20.9812 24.8651 21.1184 24.8651 21.2898 24.8651C21.7012 26.8795 22.3868 28.894 22.4211 30.9767C22.3868 31.8644 22.3183 32.7522 21.9754 33.5716C21.3926 34.9715 20.6384 36.3713 20.6727 37.9078C20.5356 37.8736 20.3984 37.8054 20.2613 37.7712C20.3641 35.1422 21.4269 32.6839 21.3241 30.0549Z" fill="#249587"/>
<path d="M9.97637 27.46C10.7649 28.0404 10.902 29.133 10.8334 30.0549C10.8677 32.0352 10.4563 34.0496 10.7306 36.0299C10.7992 36.6786 10.9706 37.2932 11.2448 37.9078C10.8334 37.5663 10.4563 37.1908 10.2506 36.6786C9.63354 35.0056 9.83924 33.1619 10.0107 31.4206C10.1478 30.1231 10.2506 28.7574 9.97637 27.46Z" fill="#249587"/>
<path d="M28.6949 31.3864C29.072 31.045 29.3806 30.6011 29.8605 30.3621C29.792 31.1133 29.5177 31.8644 28.8663 32.3083C27.9407 32.9229 26.7751 32.957 25.7123 32.8887C24.9924 32.8546 24.2724 32.718 23.5525 32.5814C23.5182 32.4449 23.4496 32.3083 23.4153 32.1376C24.7524 31.9327 26.0894 32.1376 27.4265 31.9327C27.9407 31.8644 28.3521 31.6937 28.6949 31.3864Z" fill="#249587"/>
<path d="M33.9402 33.0253C34.0774 33.0253 34.2145 33.0253 34.3516 33.0253C34.523 33.5375 34.5573 34.0496 34.7287 34.5617C34.7973 36.0982 34.4202 37.6346 34.6259 39.1711C34.6945 40.2637 34.5573 41.3562 34.5573 42.4488C34.5916 42.7903 34.1459 42.6878 33.9402 42.7561C34.1117 41.766 34.1459 40.7758 34.0088 39.7857C33.9745 39.4101 33.8374 39.0686 33.8031 38.7272C33.7345 37.7371 33.9745 36.7811 33.9745 35.7909C34.0088 35.3129 33.8717 34.8349 33.9402 34.3228C34.0088 33.913 34.0431 33.435 33.9402 33.0253Z" fill="#249587"/>
<path d="M5.48529 35.9616C5.41672 35.7226 5.8624 35.6202 5.89669 35.8592C5.96525 36.3713 5.89669 36.8835 5.89669 37.4298C5.89669 38.8638 5.89669 40.3319 6.23952 41.7318C6.61663 43.0293 6.82233 44.3608 6.95946 45.6924C7.02803 46.6484 7.16516 47.6727 6.92518 48.6287C6.85661 48.9702 6.58235 49.2092 6.30808 49.3799C6.6852 47.6044 6.4795 45.7266 5.99954 43.9853C5.82812 43.2683 5.48529 42.5854 5.38244 41.8342C5.14246 39.8539 5.69099 37.9078 5.48529 35.9616Z" fill="#249587"/>
<path d="M10.2164 39.0004C10.4563 38.6931 10.662 38.3175 11.0049 38.1126C11.2106 38.2151 11.2448 38.4882 11.1763 38.6931C11.0391 39.0345 10.8334 39.3418 10.6963 39.6832C9.66782 41.9367 9.35928 44.395 8.63933 46.7167C8.2965 47.8776 7.81654 49.0385 7.13088 50.0286C6.13667 51.5992 4.69678 52.8625 3.94255 54.5696C3.70257 55.1159 3.46259 55.6964 3.53116 56.3109C3.63401 57.5401 4.35395 58.6327 4.2511 59.896C3.25689 59.1107 3.35974 57.7108 2.81121 56.6524C2.57123 56.2085 2.57123 55.6622 2.81121 55.1842C3.42831 53.7844 4.59393 52.7601 5.55386 51.5992C6.17095 50.848 6.58235 49.9262 7.02803 49.0726C7.71369 47.8776 7.95367 46.4777 8.26222 45.112C8.7079 43.0634 9.01645 40.8441 10.2164 39.0004Z" fill="#249587"/>
<path d="M14.1246 40.5368C14.296 40.2295 14.4675 39.8539 14.8788 39.8198C14.1589 41.8001 13.7475 43.8487 12.8561 45.7607C11.8619 47.8093 10.6277 49.7213 9.32499 51.5992C8.81075 52.3503 8.53648 53.2381 8.22793 54.0916C7.95367 54.7062 8.02224 55.3891 7.91939 56.0378C7.85082 56.6524 7.61084 57.2328 7.13088 57.6425C7.02803 57.5401 6.92518 57.4377 6.82233 57.3352C7.64512 55.8329 7.43942 54.0575 8.05652 52.4869C9.39356 49.5164 11.7591 47.1606 12.959 44.1218C13.4047 42.8927 13.5761 41.6635 14.1246 40.5368Z" fill="#249587"/>
<path d="M16.4902 41.3562C16.6616 41.1514 16.8673 40.9465 17.1415 40.9807C17.93 41.049 18.4443 41.6977 19.1642 41.9367C20.8441 42.6537 22.2497 44.0194 24.0667 44.4291C27.5293 45.1461 30.6491 46.8533 33.5974 48.7653C34.0774 49.1067 34.6945 48.8677 35.2087 48.8677C36.0658 48.8336 36.2029 47.7069 36.9914 47.502C36.9914 47.741 37.0257 48.0142 36.9571 48.2532C36.4772 49.0043 35.6544 49.6189 34.763 49.7896C34.1802 49.892 33.5631 49.7213 33.1174 49.3457C32.0204 48.3897 30.7519 47.6386 29.3806 47.0581C27.5979 46.2729 25.7123 45.829 23.7924 45.4876C23.0725 45.3851 22.3868 45.0778 21.7697 44.7364C20.0213 43.6097 18.5814 41.9367 16.4902 41.3562Z" fill="#249587"/>
<path d="M14.776 43.0634C14.7074 42.5513 14.8103 42.0732 14.8788 41.5611C15.3931 43.4048 16.1816 45.1461 16.7987 46.9216C17.2101 48.1507 17.6558 49.4482 17.4158 50.7797C17.1415 52.6235 15.9073 54.1258 14.9474 55.6622C14.6732 56.1061 14.2275 56.4134 13.9532 56.8572C12.3762 59.657 11.0391 62.5933 9.49641 65.4272C8.9136 66.4515 8.26222 67.4075 7.61084 68.3635C7.09659 69.0805 6.6852 69.8999 6.37665 70.7535C6.2738 71.1632 6.23952 71.6071 6.03382 71.9826H5.8624C5.58814 71.3681 5.75955 70.6852 6.03382 70.0706C8.05652 65.7003 10.902 61.7397 13.0961 57.4377C13.6447 56.0719 14.6046 54.9452 15.4274 53.7502C15.9073 53.1356 16.1473 52.3503 16.3873 51.6333C16.7644 50.4042 16.6959 49.1067 16.3187 47.8776C15.8045 46.2729 14.9131 44.7706 14.776 43.0634Z" fill="#249587"/>
<path d="M19.2328 47.4337C19.2671 46.4094 19.6442 45.351 20.4327 44.6681C20.0899 46.4094 19.8499 48.2873 20.5013 50.0286C20.9127 51.0188 21.2898 52.0772 21.2555 53.1698C21.2898 58.462 23.2096 63.4469 24.4095 68.5342C24.5124 69.1146 24.7524 69.6951 24.8552 70.2755C25.0266 71.1974 24.8895 72.1875 24.341 72.9387C24.3753 71.6754 24.2381 70.4121 23.9296 69.1829C23.2439 66.4173 21.9754 63.8907 21.1184 61.1934C20.8784 60.374 20.8784 59.5204 20.6727 58.6668C20.3984 57.2669 20.7755 55.8329 20.8784 54.4331C20.9127 53.7502 20.8441 53.0332 20.5698 52.3845C19.7813 50.848 19.1985 49.175 19.2328 47.4337Z" fill="#249587"/>
<path d="M35.7572 49.9945C35.8944 49.9945 36.0315 49.9603 36.1686 49.9603C36.3401 52.3845 36.82 54.8086 36.58 57.2328C36.4086 58.7692 36.0658 60.3057 35.6201 61.7738C35.243 63.003 34.7973 64.2322 34.4545 65.4955C34.3174 65.9735 34.1459 66.4515 34.0774 66.9636C33.9745 67.7148 34.0431 68.4659 34.1802 69.217C34.0431 69.2853 33.9059 69.3536 33.7688 69.4219C33.2889 67.9196 33.3574 66.3149 33.7345 64.8126C34.2145 62.6957 35.1401 60.6813 35.5173 58.5302C35.8944 56.5499 35.8258 54.5355 35.8258 52.521C35.7572 51.7016 35.7915 50.848 35.7572 49.9945Z" fill="#249587"/>
<path d="M30.9233 54.3648C30.9919 54.1258 31.2662 54.0233 31.4719 53.9209C31.3347 56.1061 31.8147 58.2571 32.2261 60.374C32.3632 61.1251 32.5346 61.8763 32.5346 62.6274C32.5003 64.8467 31.7804 66.9636 31.3347 69.1146C31.2319 69.5926 31.1633 70.0365 31.0605 70.5145C30.6833 70.3438 30.8548 69.9341 30.8548 69.6268C30.7519 67.1343 31.4719 64.7443 31.4376 62.2519C31.4376 61.569 31.369 60.8861 31.2319 60.2374C30.9576 58.7692 30.8548 57.267 31.0262 55.7647C31.0605 55.3208 30.7519 54.8428 30.9233 54.3648Z" fill="#249587"/>
<path d="M14.8788 56.7548C14.9817 56.5841 15.1874 56.6524 15.3588 56.6865C15.3931 57.0621 15.2902 57.4377 15.256 57.8474C14.9817 60.9203 14.5703 63.9932 14.1246 67.066C13.9189 68.4318 14.1589 69.8316 13.9532 71.1974C13.8161 71.1632 13.6789 71.1291 13.5418 71.0608C13.2333 68.5683 13.439 66.0417 13.8161 63.5834C14.0561 61.8421 14.4675 60.135 14.7074 58.3937C14.776 57.8474 14.6046 57.2328 14.8788 56.7548Z" fill="#249587"/>
<path d="M1.09706 64.5394C1.47417 62.6274 2.05698 60.7154 3.01691 59.0083C2.84549 60.3057 2.50266 61.6031 2.26268 62.9006C1.98842 64.6077 1.85129 66.349 1.43989 68.022C1.16562 69.1488 0.754227 70.2413 0.102849 71.1974C0.44568 68.9781 0.651378 66.7246 1.09706 64.5394Z" fill="#249587"/>
<path d="M7.64512 70.3779C7.57656 69.7975 7.61084 69.1488 7.91939 68.6025C8.02224 68.7049 8.15937 68.7732 8.19365 68.9098C8.33079 69.4219 8.19365 69.9341 8.2965 70.4462C8.63933 71.5729 9.32499 72.5972 9.46213 73.7922C9.53069 74.2361 9.59926 74.7141 9.59926 75.158C9.63354 75.7043 9.39356 76.2505 9.29071 76.7627C9.18786 75.5335 9.08501 74.2702 8.53648 73.1777C8.12509 72.2899 7.71369 71.3681 7.64512 70.3779Z" fill="#249587"/>
<path d="M33.3231 71.6071C33.4603 71.6071 33.6317 71.6071 33.7688 71.6071C33.7003 71.9144 33.5631 72.1875 33.426 72.4948C33.2546 72.8704 33.3574 73.2801 33.3231 73.6557C33.3231 77.07 32.2946 80.416 31.1633 83.6255C30.6491 85.0595 30.1348 86.4935 29.6206 87.9616C29.6206 84.8546 31.3004 82.089 31.8833 79.1186C31.9175 77.9577 32.3289 76.831 32.2947 75.6701C32.3289 74.2361 32.9117 72.9387 33.3231 71.6071Z" fill="#249587"/>
<path d="M13.6447 71.7778C14.6389 72.9387 15.016 74.5092 15.0845 76.0115C15.1188 77.1383 15.1874 78.265 15.016 79.3917C14.7417 81.5769 14.0561 83.6596 13.439 85.7423C13.4047 82.6353 14.296 79.6307 14.4675 76.5578C14.5703 74.919 13.6789 73.4167 13.6447 71.7778Z" fill="#249587"/>
<path d="M0.068566 73.3825C-1.2666e-07 73.0069 -0.068566 72.5631 0.137132 72.2216C0.342831 73.8947 1.09706 75.4994 2.15983 76.831C2.57123 77.309 3.01691 77.7528 3.39402 78.2309C5.62242 80.9623 7.13088 84.2059 8.02224 87.6202C8.2965 88.7469 8.57077 89.8737 8.7079 91.0004C7.78226 88.6445 6.99375 86.2545 5.96525 83.9328C4.21682 80.894 2.2284 77.9577 0.514246 74.8848C0.239982 74.441 0.171415 73.8947 0.068566 73.3825Z" fill="#249587"/>
<path d="M6.0681 72.7338C5.99954 72.5289 6.23952 72.4606 6.37665 72.4265C6.82233 73.4849 7.33658 74.5092 8.05652 75.4311C8.5022 76.0115 8.84503 76.6603 9.18786 77.309C9.56498 78.026 9.97637 78.7088 10.1478 79.5283C10.7992 82.2597 11.0734 85.0253 11.3477 87.7909C11.3134 87.8251 11.2448 87.9275 11.2106 87.9958C10.662 84.5815 10.2849 81.0647 8.81075 77.8894C8.43363 76.9675 7.81654 76.1823 7.30229 75.3628C6.82233 74.5092 6.34237 73.6557 6.0681 72.7338Z" fill="#249587"/>
<path d="M29.6891 73.963C29.9291 73.5191 30.2719 73.1435 30.6833 72.9045C30.2719 74.5092 29.6206 76.0457 29.2435 77.6504C28.6606 81.8842 28.0093 86.2203 26.158 90.1468C26.5351 85.7423 27.8721 81.4744 28.8663 77.1724C29.072 76.114 29.1749 74.9531 29.6891 73.963Z" fill="#249587"/>
<path d="M21.7697 78.4698C22.3526 76.7627 23.3811 75.2945 24.341 73.7922C24.4781 74.7824 23.9981 75.7043 23.4839 76.5237C23.1411 77.07 22.764 77.6504 22.6268 78.2991C22.4211 79.2551 22.2497 80.177 22.0097 81.133C21.6326 83.045 22.0097 84.9912 22.284 86.8691C22.5925 88.8152 22.8668 90.898 22.2497 92.8441C22.1126 89.8054 21.4269 86.8349 21.2898 83.7962C21.2555 82.8743 21.2555 81.9183 21.3241 80.9623C21.4269 80.1087 21.4955 79.2551 21.7697 78.4698Z" fill="#249587"/>
<path d="M34.5916 83.0349C35.5173 83.0349 36.2372 83.7861 36.2372 84.6738C36.2372 85.5956 35.483 86.3127 34.5916 86.3127C33.666 86.3127 32.946 85.5615 32.946 84.6738C32.946 83.7861 33.7003 83.0349 34.5916 83.0349ZM34.5916 82.6935C33.4946 82.6935 32.6032 83.5812 32.6032 84.6738C32.6032 85.7664 33.4946 86.6541 34.5916 86.6541C35.6887 86.6541 36.58 85.7664 36.58 84.6738C36.58 83.5812 35.6887 82.6935 34.5916 82.6935Z" fill="#249587"/>
<path d="M33.666 83.5129C33.8374 83.4788 34.1116 83.4788 34.3859 83.4788C34.763 83.4788 35.003 83.5471 35.1744 83.6836C35.3116 83.7861 35.4144 83.9568 35.4144 84.1958C35.4144 84.5031 35.2087 84.7079 34.9687 84.8103C35.1401 84.8786 35.243 85.0494 35.2773 85.2542C35.3458 85.5274 35.4144 85.8346 35.483 85.9371H34.9344C34.9002 85.8688 34.8316 85.6639 34.763 85.3566C34.6945 85.0493 34.5916 84.9811 34.3859 84.9811H34.2145V85.9371H33.666V83.5129ZM34.2145 84.5714H34.4202C34.6945 84.5714 34.8659 84.4348 34.8659 84.2299C34.8659 83.9909 34.7287 83.8885 34.4545 83.8885C34.3174 83.8885 34.2488 83.8885 34.2145 83.9226V84.5714Z" fill="#249587"/>
<path d="M23.8267 0.120774C25.3009 -0.186515 26.9122 0.0866304 28.1121 1.0085C28.7978 1.4865 29.1749 2.27179 29.2435 3.09123C29.3463 4.14967 29.2092 5.2081 28.7978 6.19826C29.0035 5.07153 28.9692 3.80823 28.4207 2.78394C27.9407 1.82793 26.9122 1.14507 25.8494 1.04264C24.5467 0.83778 23.1068 1.07678 22.1126 1.99865C21.3583 2.68151 21.2555 3.73995 20.6041 4.45695C20.4327 3.56923 20.6041 2.61322 21.1527 1.82793C21.7355 0.906066 22.7297 0.291489 23.8267 0.120774Z" fill="#3D2B7D"/>
<path d="M11.4505 5.89097C12.2733 5.54954 13.1647 5.34468 14.0561 5.48125C15.2217 5.65196 16.4559 6.09583 17.2444 6.98355C17.93 7.7347 18.17 8.82728 18.1357 9.81743C17.9986 11.9343 16.833 13.778 15.5302 15.3828C15.0845 16.2022 14.8789 17.1924 15.1188 18.1142C14.9817 18.1825 14.8446 18.2166 14.6732 18.2849C14.3646 17.3631 14.4332 16.3388 14.776 15.451C15.256 14.1536 16.113 13.061 16.7301 11.866C17.1758 10.8759 17.2444 9.74914 16.9701 8.72485C16.7301 7.83713 16.1473 6.98355 15.2902 6.60797C14.3989 6.2324 13.3704 6.02754 12.3762 6.2324C11.9305 6.33483 11.4505 6.4714 11.1077 6.77869C10.6963 7.15426 10.2849 7.56398 9.73639 7.7347C9.94209 6.88112 10.662 6.2324 11.4505 5.89097Z" fill="#3D2B7D"/>
<path d="M26.9808 12.0709C27.9064 11.627 28.0093 10.432 28.8321 9.88572C28.7978 10.8417 28.3521 11.7636 27.6322 12.3782C26.5694 13.3342 25.0266 13.6756 23.621 13.5049C22.9697 13.4707 22.4211 12.9586 22.1469 12.4123C21.7697 11.6953 21.6326 10.91 21.6669 10.0906C22.284 10.5003 22.4211 11.2514 22.6954 11.866C22.9697 12.5147 23.7239 12.7879 24.3753 12.8562C25.3009 12.9245 26.158 12.4806 26.9808 12.0709Z" fill="#3D2B7D"/>
<path d="M8.94788 13.4025C9.29071 13.539 9.56497 13.8463 9.59926 14.2219C9.66782 14.8023 9.73639 15.3828 10.0792 15.8608C10.4221 16.3729 11.0734 16.5778 11.6562 16.4753C12.3076 16.4071 12.8904 16.1339 13.4732 15.8266C13.3361 16.2363 13.0618 16.5778 12.6847 16.7485C11.8277 17.1923 10.7649 17.1582 9.90781 16.7485C9.66782 16.6119 9.42784 16.4412 9.32499 16.1681C9.01645 15.2803 9.1193 14.3243 8.94788 13.4025Z" fill="#3D2B7D"/>
<path d="M21.9754 13.7097C22.0783 13.6073 22.3183 13.5049 22.3526 13.7439C22.4211 14.256 22.0783 14.6999 21.7697 15.0755C20.8441 16.1339 19.6099 16.8168 18.4786 17.6021C17.3815 18.3532 16.2845 19.1727 15.4959 20.2994C14.8103 21.392 14.296 22.6211 14.3646 23.9527C14.3989 24.5331 14.6732 25.0794 14.7417 25.6599C14.9817 27.5036 14.1932 29.3473 14.5017 31.191C15.0845 33.9908 15.9759 36.7905 15.9416 39.6585C14.9131 37.6441 14.7074 35.3565 14.0218 33.2055C13.4047 30.952 14.0218 28.6303 14.0903 26.3769C14.0903 25.0794 14.0903 23.782 14.0903 22.4504C14.0903 20.9822 14.6389 19.5141 15.6331 18.4556C16.1473 17.9094 16.7644 17.4655 17.4158 17.1582C19.1299 16.3388 20.5356 15.0072 21.9754 13.7097Z" fill="#3D2B7D"/>
<path d="M28.7978 13.6073C29.6206 14.017 29.6549 15.0755 30.4091 15.5193C31.6433 16.3729 33.2203 16.3388 34.5573 16.9533C35.1744 17.2265 35.5858 17.7728 35.9287 18.3191C36.1344 18.7288 36.2715 19.1727 36.2029 19.6165C35.9972 21.631 36.7172 23.6113 36.6829 25.6599C36.6486 26.65 36.4772 27.6743 35.8601 28.4596C35.2087 29.3473 34.3173 30.1667 34.1117 31.2935C33.7688 31.0203 33.8374 30.5423 33.9402 30.1667C34.3859 29.0742 35.3458 28.2206 35.5515 27.0256C35.7572 24.3283 35.9972 21.5968 35.3801 18.9337C35.2773 18.4215 34.9002 18.0118 34.4202 17.8069C33.9745 17.6021 33.4603 17.6021 32.946 17.5679C30.889 17.3972 28.9692 15.7242 28.7978 13.6073Z" fill="#3D2B7D"/>
<path d="M9.77067 18.4556C9.83924 19.4799 9.70211 20.5384 9.59926 21.5627C9.42784 22.4845 9.18786 23.4064 8.63933 24.1917C7.47371 26.0696 5.65671 27.4012 4.11397 28.9376C3.8397 29.2449 3.66829 29.6205 3.59972 29.996C3.59972 30.5423 3.87399 31.0203 4.2511 31.3618C4.76535 31.8398 5.27959 32.3861 5.55386 33.0689C5.72527 33.5128 5.75955 33.9908 5.55386 34.4005C5.41672 34.2981 5.31388 34.1615 5.24531 34.0249C4.76535 33.0689 3.90827 32.3178 3.49687 31.3276C3.15404 30.5765 3.11976 29.6887 3.42831 28.9035C3.70257 28.1182 4.31967 27.5036 4.93676 26.9573C5.82812 26.2061 6.78805 25.4891 7.40514 24.5331C8.63933 22.7577 9.18786 20.5725 9.77067 18.4556Z" fill="#3D2B7D"/>
<path d="M21.3241 29.2107C21.2898 27.4694 20.3641 25.7623 20.8441 24.021C20.9812 24.021 21.1184 24.021 21.2898 24.021C21.7012 26.0354 22.3868 28.0499 22.4211 30.1326C22.3868 31.0203 22.3183 31.908 21.9754 32.7275C21.3926 34.1274 20.6384 35.5272 20.6727 37.0637C20.5356 37.0295 20.3984 36.9612 20.2613 36.9271C20.3641 34.2981 21.4269 31.8398 21.3241 29.2107Z" fill="#3D2B7D"/>
<path d="M9.97637 26.6159C10.7649 27.1963 10.902 28.2889 10.8334 29.2107C10.8677 31.191 10.4563 33.2055 10.7306 35.1858C10.7992 35.8345 10.9706 36.4491 11.2448 37.0637C10.8334 36.7222 10.4563 36.3467 10.2506 35.8345C9.63354 34.1615 9.83924 32.3178 10.0107 30.5765C10.1478 29.279 10.2506 27.9133 9.97637 26.6159Z" fill="#3D2B7D"/>
<path d="M28.6949 30.5423C29.072 30.2009 29.3806 29.757 29.8605 29.518C29.792 30.2692 29.5177 31.0203 28.8663 31.4642C27.9407 32.0788 26.7751 32.1129 25.7123 32.0446C24.9924 32.0105 24.2724 31.8739 23.5525 31.7373C23.5182 31.6008 23.4496 31.4642 23.4153 31.2935C24.7524 31.0886 26.0894 31.2935 27.4265 31.0886C27.9407 31.0203 28.3521 30.8496 28.6949 30.5423Z" fill="#3D2B7D"/>
<path d="M33.9402 32.1812C34.0774 32.1812 34.2145 32.1812 34.3516 32.1812C34.5231 32.6933 34.5573 33.2055 34.7287 33.7176C34.7973 35.2541 34.4202 36.7905 34.6259 38.327C34.6945 39.4195 34.5573 40.5121 34.5573 41.6047C34.5916 41.9461 34.1459 41.8437 33.9402 41.912C34.1117 40.9218 34.1459 39.9317 34.0088 38.9415C33.9745 38.566 33.8374 38.2245 33.8031 37.8831C33.7345 36.8929 33.9745 35.9369 33.9745 34.9468C34.0088 34.4688 33.8717 33.9908 33.9402 33.4786C34.0088 33.0689 34.0431 32.5909 33.9402 32.1812Z" fill="#3D2B7D"/>
<path d="M5.48529 35.1175C5.41672 34.8785 5.8624 34.7761 5.89669 35.0151C5.96525 35.5272 5.89669 36.0394 5.89669 36.5857C5.89669 38.0197 5.89669 39.4878 6.23952 40.8877C6.61663 42.1851 6.82233 43.5167 6.95946 44.8483C7.02803 45.8043 7.16516 46.8286 6.92518 47.7846C6.85661 48.126 6.58235 48.3651 6.30808 48.5358C6.6852 46.7603 6.4795 44.8825 5.99954 43.1411C5.82812 42.4241 5.48529 41.7413 5.38244 40.9901C5.14246 39.0098 5.69099 37.0637 5.48529 35.1175Z" fill="#3D2B7D"/>
<path d="M10.2164 38.1562C10.4563 37.849 10.662 37.4734 11.0049 37.2685C11.2106 37.371 11.2448 37.6441 11.1763 37.849C11.0391 38.1904 10.8334 38.4977 10.6963 38.8391C9.66782 41.0926 9.35928 43.5509 8.63933 45.8726C8.2965 47.0335 7.81654 48.1943 7.13088 49.1845C6.13667 50.7551 4.69678 52.0184 3.94255 53.7255C3.70257 54.2718 3.46259 54.8522 3.53116 55.4668C3.63401 56.696 4.35395 57.7886 4.2511 59.0519C3.25689 58.2666 3.35974 56.8667 2.81121 55.8083C2.57123 55.3644 2.57123 54.8181 2.81121 54.3401C3.42831 52.9402 4.59393 51.9159 5.55386 50.7551C6.17095 50.0039 6.58235 49.0821 7.02803 48.2285C7.71369 47.0335 7.95367 45.6336 8.26222 44.2679C8.7079 42.2193 9.01645 40 10.2164 38.1562Z" fill="#3D2B7D"/>
<path d="M14.1246 39.6927C14.296 39.3854 14.4675 39.0098 14.8788 38.9757C14.1589 40.956 13.7475 43.0046 12.8561 44.9166C11.8619 46.9652 10.6277 48.8772 9.32499 50.7551C8.81075 51.5062 8.53648 52.3939 8.22793 53.2475C7.95367 53.8621 8.02224 54.545 7.91939 55.1937C7.85082 55.8083 7.61084 56.3887 7.13088 56.7984C7.02803 56.696 6.92518 56.5935 6.82233 56.4911C7.64512 54.9888 7.43942 53.2134 8.05652 51.6428C9.39356 48.6723 11.7591 46.3165 12.959 43.2777C13.4047 42.0486 13.5761 40.8194 14.1246 39.6927Z" fill="#3D2B7D"/>
<path d="M16.4902 40.5121C16.6616 40.3073 16.8673 40.1024 17.1415 40.1366C17.93 40.2048 18.4443 40.8536 19.1642 41.0926C20.8441 41.8096 22.2497 43.1753 24.0667 43.585C27.5293 44.302 30.6491 46.0092 33.5974 47.9212C34.0774 48.2626 34.6945 48.0236 35.2087 48.0236C36.0658 47.9895 36.2029 46.8628 36.9914 46.6579C36.9914 46.8969 37.0257 47.17 36.9571 47.409C36.4772 48.1602 35.6544 48.7748 34.763 48.9455C34.1802 49.0479 33.5631 48.8772 33.1174 48.5016C32.0204 47.5456 30.7519 46.7945 29.3806 46.214C27.5979 45.4287 25.7123 44.9849 23.7924 44.6434C23.0725 44.541 22.3868 44.2337 21.7697 43.8923C20.0213 42.7656 18.5814 41.0926 16.4902 40.5121Z" fill="#3D2B7D"/>
<path d="M14.776 42.2193C14.7074 41.7071 14.8103 41.2291 14.8788 40.717C15.3931 42.5607 16.1816 44.302 16.7987 46.0775C17.2101 47.3066 17.6558 48.604 17.4158 49.9356C17.1415 51.7794 15.9073 53.2817 14.9474 54.8181C14.6732 55.262 14.2275 55.5693 13.9532 56.0131C12.3762 58.8129 11.0391 61.7492 9.49641 64.583C8.9136 65.6073 8.26222 66.5633 7.61084 67.5194C7.09659 68.2364 6.6852 69.0558 6.37665 69.9094C6.2738 70.3191 6.23952 70.763 6.03382 71.1385H5.8624C5.58814 70.5239 5.75955 69.8411 6.03382 69.2265C8.05652 64.8562 10.902 60.8956 13.0961 56.5935C13.6447 55.2278 14.6046 54.1011 15.4274 52.9061C15.9073 52.2915 16.1473 51.5062 16.3873 50.7892C16.7644 49.5601 16.6959 48.2626 16.3187 47.0335C15.8045 45.4287 14.9131 43.9264 14.776 42.2193Z" fill="#3D2B7D"/>
<path d="M19.2328 46.5896C19.2671 45.5653 19.6442 44.5069 20.4327 43.824C20.0899 45.5653 19.8499 47.4432 20.5013 49.1845C20.9127 50.1746 21.2898 51.2331 21.2555 52.3257C21.2898 57.6178 23.2096 62.6027 24.4095 67.6901C24.5124 68.2705 24.7524 68.8509 24.8552 69.4314C25.0266 70.3532 24.8895 71.3434 24.341 72.0945C24.3753 70.8312 24.2381 69.5679 23.9296 68.3388C23.2439 65.5732 21.9754 63.0466 21.1184 60.3493C20.8784 59.5299 20.8784 58.6763 20.6727 57.8227C20.3984 56.4228 20.7755 54.9888 20.8784 53.5889C20.9127 52.9061 20.8441 52.1891 20.5698 51.5404C19.7813 50.0039 19.1985 48.3309 19.2328 46.5896Z" fill="#3D2B7D"/>
<path d="M35.7572 49.1503C35.8944 49.1503 36.0315 49.1162 36.1686 49.1162C36.34 51.5404 36.82 53.9645 36.58 56.3887C36.4086 57.9251 36.0658 59.4616 35.6201 60.9297C35.243 62.1589 34.7973 63.388 34.4545 64.6513C34.3173 65.1293 34.1459 65.6073 34.0774 66.1195C33.9745 66.8706 34.0431 67.6218 34.1802 68.3729C34.0431 68.4412 33.906 68.5095 33.7688 68.5778C33.2889 67.0755 33.3574 65.4708 33.7345 63.9685C34.2145 61.8516 35.1401 59.8371 35.5173 57.6861C35.8944 55.7058 35.8258 53.6914 35.8258 51.6769C35.7572 50.8575 35.7915 50.0039 35.7572 49.1503Z" fill="#3D2B7D"/>
<path d="M30.9233 53.5207C30.9919 53.2817 31.2662 53.1792 31.4719 53.0768C31.3347 55.262 31.8147 57.413 32.2261 59.5299C32.3632 60.281 32.5346 61.0322 32.5346 61.7833C32.5003 64.0026 31.7804 66.1195 31.3347 68.2705C31.2319 68.7485 31.1633 69.1924 31.0605 69.6704C30.6833 69.4997 30.8548 69.0899 30.8548 68.7827C30.7519 66.2902 31.4719 63.9002 31.4376 61.4077C31.4376 60.7249 31.369 60.042 31.2319 59.3933C30.9576 57.9251 30.8548 56.4228 31.0262 54.9205C31.0605 54.4767 30.7519 53.9987 30.9233 53.5207Z" fill="#3D2B7D"/>
<path d="M14.8788 55.9107C14.9817 55.74 15.1874 55.8083 15.3588 55.8424C15.3931 56.218 15.2902 56.5935 15.256 57.0033C14.9817 60.0761 14.5703 63.149 14.1246 66.2219C13.9189 67.5876 14.1589 68.9875 13.9532 70.3532C13.8161 70.3191 13.6789 70.285 13.5418 70.2167C13.2333 67.7242 13.439 65.1976 13.8161 62.7393C14.0561 60.998 14.4675 59.2909 14.7074 57.5496C14.776 57.0033 14.6046 56.3887 14.8788 55.9107Z" fill="#3D2B7D"/>
<path d="M1.09706 63.6953C1.47417 61.7833 2.05698 59.8713 3.01691 58.1641C2.84549 59.4616 2.50266 60.759 2.26268 62.0564C1.98842 63.7636 1.85129 65.5049 1.43989 67.1779C1.16562 68.3046 0.754227 69.3972 0.102849 70.3532C0.44568 68.1339 0.651378 65.8805 1.09706 63.6953Z" fill="#3D2B7D"/>
<path d="M7.64512 69.5338C7.57656 68.9534 7.61084 68.3046 7.91939 67.7584C8.02224 67.8608 8.15937 67.9291 8.19365 68.0657C8.33078 68.5778 8.19365 69.0899 8.2965 69.6021C8.63933 70.7288 9.32499 71.7531 9.46213 72.9481C9.53069 73.392 9.59926 73.87 9.59926 74.3139C9.63354 74.8601 9.39356 75.4064 9.29071 75.9186C9.18786 74.6894 9.08501 73.4261 8.53648 72.3335C8.12509 71.4458 7.71369 70.524 7.64512 69.5338Z" fill="#3D2B7D"/>
<path d="M33.3231 70.763C33.4603 70.763 33.6317 70.763 33.7688 70.763C33.7003 71.0702 33.5631 71.3434 33.426 71.6507C33.2546 72.0263 33.3574 72.436 33.3231 72.8115C33.3231 76.2259 32.2946 79.5719 31.1633 82.7813C30.6491 84.2154 30.1348 85.6494 29.6206 87.1175C29.6206 84.0105 31.3004 81.2449 31.8833 78.2745C31.9175 77.1136 32.3289 75.9869 32.2947 74.826C32.3289 73.392 32.9117 72.0945 33.3231 70.763Z" fill="#3D2B7D"/>
<path d="M13.6447 70.9337C14.6389 72.0945 15.016 73.6651 15.0845 75.1674C15.1188 76.2942 15.1874 77.4209 15.016 78.5476C14.7417 80.7328 14.0561 82.8155 13.439 84.8982C13.4047 81.7912 14.296 78.7866 14.4675 75.7137C14.5703 74.0748 13.6789 72.5725 13.6447 70.9337Z" fill="#3D2B7D"/>
<path d="M0.068566 72.5384C-1.28728e-07 72.1628 -0.068566 71.719 0.137132 71.3775C0.342831 73.0506 1.09706 74.6553 2.15983 75.9869C2.57123 76.4649 3.01691 76.9087 3.39402 77.3867C5.62242 80.1182 7.13088 83.3618 8.02224 86.7761C8.2965 87.9028 8.57077 89.0295 8.7079 90.1563C7.78226 87.8004 6.99375 85.4104 5.96525 83.0886C4.21682 80.0499 2.2284 77.1136 0.514246 74.0407C0.239982 73.5968 0.171415 73.0505 0.068566 72.5384Z" fill="#3D2B7D"/>
<path d="M6.0681 71.8897C5.99954 71.6848 6.23952 71.6165 6.37665 71.5824C6.82233 72.6408 7.33658 73.6651 8.05652 74.587C8.5022 75.1674 8.84503 75.8161 9.18786 76.4649C9.56498 77.1819 9.97637 77.8647 10.1478 78.6842C10.7992 81.4156 11.0734 84.1812 11.3477 86.9468C11.3134 86.9809 11.2448 87.0834 11.2106 87.1517C10.662 83.7374 10.2849 80.2206 8.81075 77.0453C8.43363 76.1234 7.81654 75.3381 7.30229 74.5187C6.82233 73.6651 6.34237 72.8115 6.0681 71.8897Z" fill="#3D2B7D"/>
<path d="M29.6891 73.1188C29.9291 72.675 30.2719 72.2994 30.6833 72.0604C30.2719 73.6651 29.6206 75.2016 29.2435 76.8063C28.6606 81.04 28.0093 85.3762 26.158 89.3027C26.5351 84.8982 27.8721 80.6303 28.8663 76.3283C29.072 75.2699 29.1749 74.109 29.6891 73.1188Z" fill="#3D2B7D"/>
<path d="M21.7697 77.6257C22.3526 75.9186 23.3811 74.4504 24.341 72.9481C24.4781 73.9383 23.9981 74.8601 23.4839 75.6796C23.1411 76.2259 22.764 76.8063 22.6268 77.455C22.4211 78.411 22.2497 79.3329 22.0097 80.2889C21.6326 82.2009 22.0097 84.1471 22.284 86.0249C22.5925 87.9711 22.8668 90.0538 22.2497 92C22.1126 88.9613 21.4269 85.9908 21.2898 82.9521C21.2555 82.0302 21.2555 81.0742 21.3241 80.1182C21.4269 79.2646 21.4955 78.411 21.7697 77.6257Z" fill="#3D2B7D"/>
<path d="M34.5916 82.6789C35.5173 82.6789 36.2372 83.4301 36.2372 84.3178C36.2372 85.2397 35.483 85.9567 34.5916 85.9567C33.666 85.9567 32.946 85.2055 32.946 84.3178C32.946 83.4301 33.7003 82.6789 34.5916 82.6789ZM34.5916 82.3375C33.4946 82.3375 32.6032 83.2252 32.6032 84.3178C32.6032 85.4104 33.4946 86.2981 34.5916 86.2981C35.6887 86.2981 36.58 85.4104 36.58 84.3178C36.58 83.2252 35.6887 82.3375 34.5916 82.3375Z" fill="#3D2B7D"/>
<path d="M33.666 83.1569C33.8374 83.1228 34.1117 83.1228 34.3859 83.1228C34.763 83.1228 35.003 83.1911 35.1744 83.3276C35.3116 83.4301 35.4144 83.6008 35.4144 83.8398C35.4144 84.1471 35.2087 84.3519 34.9687 84.4544C35.1401 84.5226 35.243 84.6934 35.2773 84.8982C35.3458 85.1714 35.4144 85.4787 35.483 85.5811H34.9344C34.9002 85.5128 34.8316 85.3079 34.763 85.0006C34.6945 84.6934 34.5916 84.6251 34.3859 84.6251H34.2145V85.5811H33.666V83.1569ZM34.2145 84.2154H34.4202C34.6945 84.2154 34.8659 84.0788 34.8659 83.8739C34.8659 83.6349 34.7287 83.5325 34.4545 83.5325C34.3173 83.5325 34.2488 83.5325 34.2145 83.5667V84.2154Z" fill="#3D2B7D"/>
<g clip-path="url(#clip0_791_618)">
<path d="M63.7847 55.4832C63.1973 54.6589 62.6928 53.7792 62.2787 52.8565C60.7324 49.2078 59.6024 45.3978 58.9102 41.4982C57.7165 35.102 57.0774 28.6154 57 22.1102C57 20.7378 57.325 19.4836 58.3791 19.4836C58.541 19.4716 58.7037 19.4932 58.8567 19.5469C59.0098 19.6007 59.15 19.6855 59.2685 19.7959C59.387 19.9064 59.4811 20.0402 59.5449 20.1887C59.6088 20.3372 59.6409 20.4973 59.6394 20.6589C60.0912 29.5405 60.535 35.9689 62.5244 44.535C63.0555 47.1039 63.7869 49.6277 64.712 52.0835C65.1242 53.0537 65.2827 54.2684 66.2972 54.3079C67.3118 54.3473 67.5178 53.0537 67.9617 52.2492C69.5524 48.8323 70.9367 45.3239 72.107 41.7427L84.7887 7.12356C84.9868 6.55565 85.1136 5.54602 85.6367 5.54602C86.1598 5.54602 86.3263 5.82998 86.3263 6.15337C86.2156 6.63973 86.0226 7.10383 85.7556 7.52584C82.1783 17.722 78.5826 27.9287 74.9683 38.146C73.4307 42.5946 71.9247 47.0748 70.3395 51.5551C69.4914 54.1817 67.9617 56.8872 66.1229 56.8872C65.6574 56.8493 65.2069 56.706 64.8057 56.4681C64.4045 56.2302 64.0634 55.9041 63.8085 55.5147" fill="#249587"/>
<path d="M91.0976 44.8978C90.733 44.4482 90.5269 43.2808 90.5269 41.301C90.5759 39.1903 90.74 37.0838 91.0183 34.9908L90.0276 36.1661C89.3354 37.1757 88.1993 39.1555 86.6194 42.1055C86.2755 42.8367 85.7939 43.4954 85.2006 44.0459C84.7382 44.5517 84.0953 44.8575 83.4093 44.8978C82.6801 44.8978 82.1095 44.3693 81.7052 43.2808C81.4963 42.5305 81.387 41.7562 81.3803 40.9776C81.3716 39.9671 81.5077 38.9605 81.7845 37.9882C81.9906 37.1994 82.3552 36.8523 82.8387 36.8523C83.5362 36.9785 83.8532 37.3019 83.8532 37.8225C83.8057 38.3552 83.7129 38.883 83.5758 39.4001C83.3713 40.0533 83.2749 40.7353 83.2904 41.4193C83.3145 41.9721 83.4664 42.512 83.7343 42.9969C84.4433 42.694 85.0198 42.1483 85.3591 41.4587C85.4114 41.3293 85.4807 41.2073 85.5652 41.0959L87.2693 38.351C88.2556 36.721 89.3827 35.1797 90.6379 33.7446C91.2878 32.9558 91.8506 32.5772 92.342 32.5772C92.5994 32.6413 92.8261 32.7932 92.9825 33.0065C93.1389 33.2199 93.2152 33.481 93.198 33.7446C93.1826 34.1409 93.1268 34.5347 93.0315 34.9198C92.9919 35.6455 92.873 36.4974 92.7462 37.4202C92.5176 38.8766 92.3957 40.3476 92.3816 41.8216C92.3668 42.2266 92.3747 42.6321 92.4054 43.0363C93.7085 41.2016 94.9149 39.3007 96.0196 37.3414C96.305 36.8129 96.5507 36.4106 96.7092 36.1661C97.3591 35.117 97.9298 34.5885 98.4133 34.5885C98.8968 34.5885 99.2059 34.9041 99.4278 35.5114C99.5115 35.8147 99.5542 36.1277 99.5546 36.4422V36.7261C99.5926 36.9872 99.6058 37.2513 99.5943 37.5149C99.6339 38.3037 99.6339 38.9741 99.6735 39.6209C99.7132 40.2677 99.7528 40.9145 99.8321 41.4351C99.8451 41.8025 99.9756 42.1562 100.205 42.4447C100.442 42.0424 100.767 41.4745 101.132 40.7489C102.963 36.9154 104.548 34.9356 105.8 34.77C105.982 34.7941 106.157 34.8574 106.311 34.9555C106.466 35.0535 106.597 35.1841 106.696 35.3379C107.053 35.8431 107.379 36.37 107.671 36.9154C108.3 38.0101 109.14 38.9699 110.144 39.7392C110.95 40.4243 111.969 40.8115 113.029 40.8356C113.531 40.8228 114.027 40.7129 114.487 40.5122C114.605 40.4704 114.728 40.4413 114.852 40.4255C115.018 40.4255 115.098 40.5122 115.224 40.7094C115.229 40.7992 115.198 40.8872 115.137 40.9539C115.06 41.0542 114.963 41.1374 114.852 41.1985C114.131 41.6207 113.31 41.844 112.474 41.8453C110.16 41.8453 107.932 40.0232 105.737 36.3238C105.287 36.6599 104.914 37.0874 104.643 37.578C103.691 38.9527 102.823 40.3829 102.043 41.861C101.108 43.6752 100.339 44.606 99.6656 44.606C98.9919 44.606 98.5322 44.038 98.2072 42.8706C97.8886 41.7504 97.7102 40.5953 97.6762 39.4316L97.7158 37.0653C96.7521 38.3056 95.8956 39.6249 95.1557 41.0091L93.2535 44.3614C92.9681 44.9688 92.6035 45.2922 92.0725 45.2922C91.8824 45.2891 91.6948 45.2485 91.5207 45.1727C91.3465 45.0968 91.1892 44.9873 91.0579 44.8505M82.4503 30.4633C82.5375 29.9427 82.8149 29.6745 83.2429 29.6745C83.6709 29.6745 83.8532 29.8401 83.8928 30.1557C83.9325 30.4712 83.6471 30.7236 83.1002 30.8024C82.5533 30.8813 82.4107 30.6841 82.4107 30.4396" fill="#249587"/>
<path d="M136.403 43.1152C135.387 43.1071 134.387 42.8583 133.486 42.3895C132.905 42.9967 132.203 43.4766 131.426 43.7985C130.648 44.1204 129.811 44.2772 128.968 44.2589C127.99 44.3097 127.027 43.9978 126.266 43.3834C125.933 43.0868 125.671 42.721 125.497 42.312C125.323 41.903 125.242 41.4609 125.259 41.0171C125.256 40.2447 125.538 39.4982 126.052 38.9189C126.53 38.3551 127.104 37.8797 127.748 37.5149C128.374 37.1757 129.072 36.8445 129.832 36.5211C129.893 35.6 130.118 34.6971 130.498 33.855C130.852 33.0062 131.366 32.2325 132.012 31.5755C132.253 31.3069 132.545 31.0889 132.872 30.9345C133.199 30.7801 133.553 30.6923 133.914 30.6763C134.099 30.6661 134.283 30.6922 134.457 30.7532C134.631 30.8141 134.792 30.9086 134.929 31.0312C135.059 31.1591 135.161 31.3132 135.226 31.4832C135.292 31.6533 135.32 31.8353 135.309 32.0172C135.269 32.5163 135.13 33.0026 134.9 33.448C134.67 33.8933 134.354 34.289 133.97 34.6122C133.053 35.5243 132.01 36.3 130.871 36.9154C130.883 37.7828 131.139 38.6295 131.608 39.3606C132.077 40.1036 132.708 40.7318 133.455 41.1985C133.762 40.8633 134.028 40.4925 134.247 40.0942C134.453 39.6998 134.644 39.3054 134.826 38.8558C134.957 38.554 135.066 38.2429 135.151 37.9251C135.151 37.8383 135.19 37.72 135.222 37.5859C135.241 37.4748 135.273 37.3663 135.317 37.2625C135.357 37.1915 135.404 37.1521 135.46 37.1521C135.515 37.1521 135.634 37.2231 135.706 37.365C135.772 37.4836 135.81 37.6159 135.817 37.7515C135.777 38.2515 135.665 38.7431 135.484 39.2108C135.293 39.7919 135.049 40.3544 134.754 40.8909C134.564 41.2221 134.406 41.4903 134.271 41.6796C134.983 41.9845 135.747 42.1479 136.522 42.1608C136.878 42.1788 137.232 42.102 137.549 41.9384C137.865 41.7748 138.131 41.5303 138.321 41.23C138.751 40.5431 139.059 39.7881 139.233 38.9978C139.28 38.8558 139.32 38.7296 139.36 38.635C139.399 38.5403 139.431 38.493 139.478 38.493C139.545 38.4956 139.607 38.5239 139.653 38.5719C139.68 38.5901 139.702 38.6148 139.717 38.6437C139.733 38.6727 139.74 38.7049 139.74 38.7375C139.721 39.3092 139.631 39.8762 139.47 40.4255C139.249 41.1074 138.875 41.7304 138.377 42.2475C138.128 42.5278 137.82 42.7491 137.474 42.8952C137.129 43.0412 136.754 43.1083 136.379 43.0915M129.801 37.4045L128.897 37.7673C128.281 38.0407 127.738 38.454 127.312 38.9741C126.829 39.5098 126.562 40.2031 126.559 40.9224C126.549 41.214 126.6 41.5045 126.707 41.7759C126.815 42.0473 126.978 42.2937 127.185 42.5C127.73 42.9367 128.422 43.1485 129.119 43.0915C129.777 43.1072 130.432 42.9919 131.045 42.7524C131.614 42.5232 132.148 42.2152 132.63 41.8374C131.878 41.3142 131.232 40.653 130.728 39.8891C130.223 39.1403 129.913 38.2784 129.824 37.3808M133.883 31.4098C133.596 31.4349 133.318 31.522 133.069 31.6651C132.82 31.8082 132.605 32.0037 132.44 32.238C131.944 32.8145 131.545 33.4671 131.259 34.1705C130.992 34.7381 130.836 35.3511 130.799 35.9768C131.692 35.4575 132.511 34.8207 133.233 34.0838C133.887 33.5613 134.317 32.8115 134.437 31.9856C134.442 31.8375 134.394 31.6925 134.303 31.5755C134.25 31.5174 134.185 31.4723 134.112 31.4435C134.039 31.4148 133.961 31.4033 133.883 31.4098Z" fill="#249587"/>
<path d="M154.593 55.4831C154.006 54.6589 153.501 53.7791 153.087 52.8565C151.541 49.2078 150.411 45.3978 149.719 41.4982C148.525 35.102 147.886 28.6154 147.809 22.1102C147.809 20.7378 148.134 19.4836 149.196 19.4836C149.357 19.4715 149.519 19.4931 149.672 19.5469C149.825 19.6008 149.965 19.6857 150.082 19.7963C150.2 19.9069 150.294 20.0407 150.357 20.1892C150.419 20.3378 150.451 20.4977 150.448 20.6589C150.9 29.5404 151.344 35.9689 153.333 44.535C153.863 47.105 154.597 49.6291 155.529 52.0835C155.933 53.0537 156.091 54.2684 157.114 54.3079C158.136 54.3473 158.334 53.0537 158.778 52.2492C160.377 48.8328 161.769 45.3244 162.947 41.7427L175.629 7.12356C175.827 6.55565 175.954 5.54602 176.477 5.54602C177 5.54602 177.167 5.82998 177.167 6.15337C177.056 6.63973 176.863 7.10383 176.596 7.52584C173.029 17.7483 169.431 27.9682 165.801 38.1854C164.263 42.6341 162.757 47.1143 161.172 51.5945C160.324 54.2211 158.794 56.9266 156.955 56.9266C156.49 56.8888 156.039 56.7454 155.638 56.5075C155.237 56.2696 154.896 55.9435 154.641 55.5541" fill="#249587"/>
<path d="M173.465 45.4026C173.019 44.8716 172.724 44.2317 172.609 43.549C172.417 42.7134 172.321 41.8586 172.324 41.0013C172.348 39.6861 172.554 38.3803 172.934 37.1205C173.014 36.9115 173.11 36.7085 173.219 36.5132C173.308 36.3426 173.442 36.1999 173.607 36.101C173.772 36.0021 173.962 35.9509 174.155 35.9532L174.4 35.9926C174.637 36.0279 174.852 36.1522 174.999 36.3401C175.147 36.5279 175.216 36.7649 175.193 37.0022L174.789 39.7077C174.789 40.3939 174.702 41.159 174.702 41.9715C174.687 42.4569 174.716 42.9426 174.789 43.4228C174.947 44.1485 175.153 44.4719 175.518 44.4719C175.85 44.4301 176.162 44.2899 176.414 44.0696C177.206 43.5017 177.912 42.8549 178.641 42.216C179.941 41.0802 181.241 39.8497 182.604 38.7375C182.821 38.4366 183.139 38.2216 183.499 38.1302C183.647 38.1466 183.787 38.204 183.904 38.2958V38.6192L183.293 39.3054C181.47 41.1196 179.679 42.9022 177.817 44.677C177.321 45.1623 176.776 45.5958 176.192 45.9706C175.86 46.1675 175.484 46.2787 175.098 46.294C174.784 46.2711 174.479 46.1793 174.205 46.0252C173.931 45.8711 173.694 45.6585 173.513 45.4026M174.836 32.451C174.735 32.4502 174.636 32.4288 174.543 32.388C174.451 32.3473 174.368 32.2881 174.3 32.2141C174.231 32.1402 174.179 32.053 174.146 31.9581C174.113 31.8632 174.1 31.7625 174.107 31.6622V31.5834C174.107 31.475 174.129 31.3677 174.172 31.2682C174.216 31.1687 174.279 31.0792 174.359 31.0052C174.438 30.9311 174.532 30.8742 174.635 30.838C174.738 30.8018 174.847 30.787 174.955 30.7946H175.034C175.235 30.8086 175.423 30.8978 175.559 31.0443C175.696 31.1907 175.772 31.3834 175.772 31.5834C175.724 32.104 175.486 32.3721 175.034 32.3721L174.836 32.451Z" fill="#249587"/>
<path d="M180.725 70.2647C180.6 69.7479 180.534 69.2187 180.527 68.6872C180.547 67.8007 180.67 66.9194 180.891 66.0606C181.638 62.9593 182.915 60.0086 184.664 57.3368C186.289 54.8758 187.914 52.4464 189.618 50.0248C190.222 49.2179 190.562 48.246 190.593 47.2405C190.633 46.2308 190.672 45.2607 190.672 44.2905C190.699 43.0301 190.604 41.77 190.387 40.528C190.189 39.4001 189.903 38.9505 189.594 38.9505C189.285 38.9505 188.619 39.6367 187.89 40.4018C186.994 41.3326 186.186 42.3422 185.29 43.2335C185.093 43.4461 184.854 43.6165 184.588 43.7345C184.323 43.8525 184.036 43.9155 183.745 43.9197C182.691 43.9197 181.882 43.0679 181.882 41.7348C181.874 40.5465 182.107 39.3688 182.568 38.2723C183.028 37.1758 183.706 36.1831 184.561 35.3537C184.721 35.1777 184.915 35.0365 185.132 34.9387C185.349 34.841 185.583 34.7889 185.821 34.7858C186.121 34.7902 186.414 34.8746 186.67 35.0303C186.804 35.1508 186.908 35.302 186.971 35.4709C187.035 35.6398 187.056 35.8215 187.034 36.0005V36.4422C186.995 36.7656 186.915 37.1284 186.551 37.231C184.355 38.0197 184.03 40.1415 183.991 41.9636C184.847 40.954 188.175 36.6709 190.403 36.5526H190.648C191.703 36.5526 192.479 37.0732 193.026 38.4062C193.466 39.6091 193.687 40.8807 193.676 42.1608V44.3062C194.105 44.0767 194.491 43.7752 194.817 43.4149C196.236 42.003 198.836 39.2975 200.738 38.5719C200.941 38.4657 201.161 38.3963 201.388 38.3668C201.471 38.3713 201.55 38.4009 201.615 38.4517C201.681 38.5025 201.729 38.572 201.753 38.6507C201.791 38.7092 201.807 38.7788 201.8 38.8479C201.8 39.1319 201.475 39.2581 201.269 39.337C198.59 40.7094 195.951 43.8172 194.08 46.0021C193.559 46.657 193.279 47.4699 193.288 48.3053C192.641 54.0049 191.136 59.5754 188.825 64.8301C188.06 66.6658 187.05 68.3904 185.821 69.9571C185.283 70.6783 184.59 71.2711 183.792 71.6924C183.44 71.877 183.049 71.9744 182.651 71.9763C182.18 71.9505 181.733 71.7636 181.385 71.4474C181.037 71.1312 180.81 70.7051 180.741 70.2411M183.745 69.192C184.583 68.2376 185.267 67.16 185.774 65.9975C187.542 62.3117 188.826 58.4147 189.594 54.4025C189.768 53.8786 189.877 53.3356 189.919 52.7855C189.921 52.4832 189.864 52.1833 189.753 51.9021C188.269 53.9275 186.901 56.0342 185.655 58.2123C183.911 60.9967 182.168 64.5225 182.168 68.064V68.7976C182.207 69.2393 182.413 69.8072 182.857 69.8072C183.301 69.8072 183.428 69.4838 183.705 69.1999" fill="#249587"/>
<path d="M213.246 48.0845C212.635 48.0845 212.39 47.6033 212.31 47.0748C212.121 46.1435 211.999 45.1998 211.946 44.251C211.867 41.585 211.866 38.8716 211.819 36.2056C211.819 35.4168 211.454 35.0382 210.765 35.0382C210.107 35.0856 209.463 35.2485 208.863 35.5193C206.548 36.2056 205.161 36.7341 205.042 37.0969C204.998 37.1716 204.971 37.2551 204.963 37.3414C204.999 37.5715 205.083 37.7917 205.209 37.9882C205.56 39.0031 205.737 40.0698 205.732 41.1433C205.699 42.8383 205.341 44.5115 204.678 46.0731C204.313 46.9644 203.782 47.8557 202.688 47.8557C201.468 47.8557 200.818 47.067 200.31 46.0731C199.991 45.3754 199.811 44.6227 199.779 43.8567C199.779 43.4071 199.7 42.9654 199.7 42.5236C199.688 40.8484 200.006 39.1869 200.635 37.6333C201.246 36.0557 201.65 35.7323 203.52 35.7323C204.773 35.7323 206.033 35.0855 207.333 34.8016C207.777 34.6832 211.882 33.3897 212.207 33.3897C213.341 33.3897 213.872 34.0365 214.07 35.5746C214.11 35.9768 214.11 36.7025 214.11 37.4676V39.8339C214.078 40.3456 214.107 40.8592 214.197 41.3641C215.861 38.7375 220.649 31.3467 224.136 31.3467C224.346 31.3467 224.548 31.4298 224.696 31.5778C224.845 31.7257 224.929 31.9263 224.929 32.1355C224.93 32.2207 224.914 32.3053 224.881 32.3843C224.849 32.4632 224.801 32.5349 224.741 32.5952C224.68 32.6555 224.608 32.7031 224.529 32.7352C224.449 32.7674 224.364 32.7834 224.279 32.7823C219.729 33.508 214.696 42.8865 214.173 46.9802C214.086 47.5481 213.927 48.0293 213.277 48.0293L213.246 48.0845ZM203.988 41.0565C204.007 39.9401 203.696 38.8428 203.092 37.9014C202.579 39.4293 202.293 41.0238 202.244 42.6341C202.25 43.5736 202.372 44.5089 202.609 45.4184C203.491 44.117 203.971 42.5868 203.988 41.0171" fill="#249587"/>
<path d="M233.156 20.7614C233.738 20.7614 234.307 20.9333 234.79 21.2552C235.274 21.5771 235.651 22.0346 235.873 22.5697C236.096 23.1049 236.153 23.6937 236.039 24.2616C235.925 24.8294 235.644 25.3509 235.232 25.7598C234.82 26.1687 234.296 26.4468 233.725 26.5588C233.154 26.6709 232.562 26.6118 232.025 26.3891C231.488 26.1664 231.029 25.7901 230.707 25.3078C230.385 24.8255 230.214 24.259 230.215 23.6799C230.215 23.296 230.291 22.9158 230.439 22.5612C230.587 22.2066 230.804 21.8845 231.077 21.6134C231.35 21.3423 231.674 21.1275 232.031 20.9813C232.388 20.8351 232.77 20.7604 233.156 20.7614ZM233.156 20.1777C232.46 20.1777 231.779 20.3831 231.201 20.768C230.622 21.1528 230.171 21.6997 229.905 22.3397C229.638 22.9796 229.569 23.6838 229.704 24.3631C229.84 25.0425 230.175 25.6665 230.667 26.1563C231.16 26.6461 231.787 26.9796 232.469 27.1147C233.152 27.2499 233.86 27.1805 234.503 26.9154C235.146 26.6504 235.695 26.2015 236.082 25.6256C236.469 25.0496 236.675 24.3725 236.675 23.6799C236.675 22.7511 236.304 21.8603 235.644 21.2035C234.984 20.5467 234.089 20.1777 233.156 20.1777Z" fill="#249587"/>
<path d="M231.523 21.6053C231.954 21.5453 232.388 21.5163 232.823 21.5186C233.313 21.4722 233.804 21.5917 234.218 21.8577C234.349 21.967 234.453 22.1051 234.522 22.2611C234.591 22.4171 234.622 22.5868 234.614 22.7569C234.608 22.993 234.528 23.2213 234.386 23.4106C234.244 23.5998 234.047 23.7407 233.821 23.8139C233.972 23.8924 234.103 24.0044 234.203 24.1412C234.303 24.2779 234.371 24.4358 234.4 24.6027C234.535 25.0917 234.67 25.6517 234.749 25.8174H233.75C233.617 25.494 233.516 25.1585 233.449 24.8156C233.338 24.2793 233.148 24.1294 232.751 24.1294H232.458V25.8174H231.491L231.523 21.6053ZM232.49 23.4589H232.87C233.362 23.4589 233.663 23.2144 233.663 22.8358C233.663 22.4572 233.393 22.2442 232.95 22.2363C232.802 22.2257 232.654 22.2257 232.506 22.2363L232.49 23.4589Z" fill="#249587"/>
<path d="M64.4584 53.9766C63.8739 53.1505 63.3696 52.271 62.9524 51.3499C61.4132 47.6987 60.2835 43.8895 59.5839 39.9916C58.3931 33.5951 57.7566 27.1086 57.6816 20.6036C57.6816 19.2312 58.0066 17.977 59.0608 17.977C59.2223 17.9649 59.3846 17.9865 59.5372 18.0403C59.6899 18.0942 59.8296 18.1791 59.9475 18.2897C60.0653 18.4003 60.1587 18.5341 60.2217 18.6826C60.2846 18.8312 60.3157 18.9911 60.3131 19.1523C60.7649 28.0339 61.2087 34.4624 63.1981 43.0284C63.7318 45.5975 64.4658 48.1214 65.3937 50.5769C65.7979 51.5471 65.9564 52.7619 66.9789 52.8013C68.0013 52.8407 68.1995 51.5471 68.6433 50.7426C70.2374 47.3271 71.6217 43.8185 72.7886 40.2362L85.4703 5.61697C85.6684 5.04906 85.7952 4.03943 86.3184 4.03943C86.8415 4.03943 87.0079 4.32339 87.0079 4.64679C86.8964 5.13163 86.7064 5.59518 86.4452 6.01925C82.8732 16.2417 79.2721 26.4616 75.642 36.6788C74.1044 41.1275 72.5984 45.6077 71.0211 50.0879C70.1651 52.7145 68.6433 55.42 66.7966 55.42C66.3314 55.381 65.8813 55.2372 65.4803 54.9994C65.0793 54.7616 64.738 54.4361 64.4822 54.0476" fill="#3D2B7D"/>
<path d="M91.7715 43.3912C91.4069 42.9416 91.2087 41.8137 91.2087 39.7944C91.2542 37.6838 91.4156 35.5773 91.6922 33.4843L90.7173 34.6516C90.0251 35.6613 88.889 37.6411 87.3091 40.5911C86.9686 41.3242 86.4865 41.9835 85.8904 42.5315C85.4279 43.0373 84.785 43.343 84.0991 43.3834C83.3699 43.3834 82.8071 42.8549 82.395 41.8058C82.1899 41.0547 82.0807 40.2809 82.07 39.5026C82.064 38.4917 82.2028 37.4851 82.4822 36.5132C82.6803 35.7244 83.0449 35.3773 83.5363 35.3773C84.2259 35.5035 84.5509 35.8269 84.5509 36.3475C84.5007 36.8804 84.4053 37.4082 84.2655 37.925C84.061 38.5783 83.9647 39.2603 83.9802 39.9443C84.0078 40.4966 84.1595 41.0356 84.424 41.5218C85.1331 41.219 85.7095 40.6733 86.0489 39.9837C86.104 39.8556 86.1731 39.734 86.255 39.6209L87.9591 36.876C88.948 35.2478 90.075 33.7067 91.3276 32.2696C91.9776 31.4808 92.5482 31.1022 93.0317 31.1022C93.2892 31.1663 93.5158 31.3182 93.6722 31.5315C93.8287 31.7448 93.9049 32.006 93.8877 32.2696C93.8764 32.6663 93.8206 33.0605 93.7213 33.4448C93.6816 34.1705 93.5627 35.0224 93.4359 35.9452C93.2112 37.4021 93.0894 38.8728 93.0713 40.3466C93.0632 40.7388 93.0765 41.1311 93.111 41.5218C94.4141 39.6871 95.6205 37.7863 96.7252 35.8269C97.0106 35.2984 97.2563 34.8962 97.4148 34.6516C98.0647 33.6026 98.6354 33.0741 99.1189 33.0741C99.6024 33.0741 99.9115 33.3896 100.141 33.997C100.222 34.3006 100.262 34.6136 100.26 34.9277V35.2117C100.285 35.474 100.285 35.7381 100.26 36.0004C100.3 36.7892 100.3 37.4597 100.34 38.1065C100.379 38.7533 100.427 39.4001 100.506 39.9206C100.513 40.2878 100.641 40.6424 100.871 40.9303C101.116 40.528 101.441 39.9601 101.806 39.2344C103.629 35.401 105.214 33.4212 106.474 33.2555C106.655 33.2807 106.827 33.3445 106.981 33.4426C107.134 33.5406 107.264 33.6705 107.362 33.8234C107.719 34.3287 108.045 34.8556 108.337 35.401C108.966 36.4975 109.81 37.4576 110.818 38.2248C111.62 38.911 112.637 39.2985 113.695 39.3212C114.2 39.3074 114.698 39.1976 115.161 38.9978C115.279 38.9551 115.401 38.926 115.526 38.911C115.684 38.911 115.771 38.9978 115.89 39.195C115.897 39.2837 115.869 39.3715 115.811 39.4395C115.732 39.5379 115.635 39.6208 115.526 39.684C114.804 40.1038 113.984 40.3269 113.148 40.3308C110.834 40.3308 108.598 38.5087 106.403 34.8094C105.957 35.1493 105.585 35.576 105.309 36.0636C104.36 37.4401 103.492 38.8701 102.709 40.3466C101.782 42.1608 101.005 43.0915 100.332 43.0915C99.6579 43.0915 99.1982 42.5236 98.8732 41.3562C98.5545 40.236 98.3762 39.0809 98.3421 37.9172L98.3818 35.5508C97.4206 36.7913 96.5668 38.1107 95.8296 39.4947L93.9908 42.9022C93.7054 43.5096 93.3408 43.8329 92.8177 43.8329C92.6263 43.8309 92.4372 43.7908 92.2616 43.715C92.086 43.6391 91.9275 43.529 91.7953 43.3912M83.1955 29.004C83.1955 28.7948 83.279 28.5942 83.4277 28.4463C83.5763 28.2984 83.7779 28.2153 83.9881 28.2153C84.3923 28.2153 84.5984 28.3809 84.6381 28.6964C84.6777 29.0119 84.3924 29.2643 83.8455 29.3432C83.2986 29.4221 83.1559 29.2249 83.1559 28.9804" fill="#3D2B7D"/>
<path d="M137.076 41.6086C136.06 41.6005 135.06 41.3518 134.16 40.883C133.579 41.4902 132.877 41.9701 132.099 42.292C131.321 42.6138 130.484 42.7706 129.642 42.7523C128.663 42.8031 127.7 42.4912 126.939 41.8768C126.607 41.5803 126.344 41.2145 126.17 40.8055C125.996 40.3965 125.915 39.9543 125.932 39.5105C125.932 38.7409 126.214 37.9975 126.725 37.4202C127.202 36.8499 127.779 36.3713 128.429 36.0083C129.106 35.6416 129.802 35.3099 130.514 35.0145C130.568 34.0934 130.791 33.1899 131.172 32.3484C131.524 31.501 132.038 30.7296 132.685 30.0768C132.926 29.8051 133.219 29.5847 133.547 29.4288C133.876 29.2729 134.232 29.1848 134.596 29.1697C134.967 29.1518 135.331 29.2792 135.61 29.5246C135.738 29.6541 135.837 29.8086 135.901 29.9784C135.965 30.1482 135.993 30.3295 135.983 30.5106C135.902 31.517 135.423 32.4504 134.651 33.1057C133.732 34.0143 132.689 34.7897 131.552 35.4089C131.557 36.2774 131.813 37.1262 132.289 37.8541C132.753 38.5984 133.382 39.2271 134.128 39.6919C134.433 39.3545 134.699 38.9841 134.921 38.5876C135.119 38.1932 135.317 37.7989 135.491 37.3493C135.622 37.0462 135.733 36.7354 135.824 36.4185C135.838 36.3042 135.859 36.1909 135.888 36.0793C135.909 35.9678 135.943 35.8593 135.991 35.7559C136 35.7253 136.019 35.6982 136.045 35.6785C136.07 35.6588 136.101 35.6473 136.133 35.6455C136.223 35.6455 136.302 35.7165 136.371 35.8585C136.438 35.977 136.476 36.1093 136.482 36.245C136.443 36.7449 136.331 37.2365 136.149 37.7042C135.961 38.2851 135.72 38.8475 135.428 39.3843C135.23 39.7156 135.071 39.9838 134.936 40.1731C135.648 40.4779 136.413 40.6413 137.187 40.6542C137.543 40.6722 137.898 40.5954 138.214 40.4318C138.53 40.2682 138.797 40.0237 138.987 39.7235C139.416 39.0355 139.727 38.2811 139.906 37.4912C139.939 37.3681 139.978 37.247 140.025 37.1284C140.067 37.0337 140.107 36.9864 140.144 36.9864C140.21 36.9906 140.272 37.0186 140.318 37.0653C140.345 37.0845 140.368 37.1092 140.384 37.1378C140.4 37.1664 140.41 37.1981 140.413 37.2309C140.391 37.8028 140.298 38.3698 140.136 38.9189C139.949 39.6146 139.601 40.2573 139.121 40.7962C138.874 41.0774 138.565 41.2993 138.22 41.4454C137.874 41.5916 137.499 41.6581 137.124 41.6402M130.506 35.9374L129.594 36.3002C128.978 36.5735 128.435 36.9869 128.009 37.507C127.527 38.0426 127.259 38.736 127.256 39.4553C127.246 39.7476 127.297 40.0389 127.406 40.3105C127.515 40.5821 127.68 40.8281 127.89 41.0328C128.432 41.4683 129.122 41.6801 129.816 41.6244C130.477 41.6392 131.134 41.524 131.75 41.2852C132.32 41.0567 132.853 40.7486 133.335 40.3703C132.583 39.849 131.94 39.1873 131.441 38.422C130.936 37.6732 130.626 36.8113 130.537 35.9137M134.596 29.9427C134.311 29.963 134.034 30.044 133.784 30.1801C133.534 30.3162 133.316 30.5042 133.145 30.7315C132.649 31.3079 132.25 31.9606 131.964 32.664C131.697 33.2316 131.541 33.8446 131.504 34.4702C132.397 33.9509 133.216 33.3141 133.938 32.5772C134.595 32.0574 135.026 31.3063 135.143 30.4791C135.15 30.3304 135.102 30.1842 135.008 30.0689C134.957 30.011 134.893 29.9658 134.822 29.937C134.75 29.9083 134.673 29.8967 134.596 29.9032" fill="#3D2B7D"/>
<path d="M155.267 53.9766C154.682 53.1505 154.178 52.271 153.761 51.35C152.222 47.6987 151.092 43.8895 150.392 39.9916C149.202 33.5951 148.565 27.1086 148.49 20.6036C148.49 19.2312 148.815 17.977 149.869 17.977C150.031 17.9649 150.193 17.9865 150.346 18.0403C150.499 18.0942 150.638 18.1791 150.756 18.2897C150.874 18.4003 150.967 18.5341 151.03 18.6826C151.093 18.8312 151.124 18.9911 151.122 19.1523C151.573 28.0339 152.017 34.4624 154.007 43.0284C154.54 45.5976 155.274 48.1214 156.202 50.577C156.606 51.5471 156.765 52.7619 157.787 52.8013C158.81 52.8407 159.008 51.5472 159.452 50.7426C161.046 47.3271 162.43 43.8185 163.597 40.2362L176.279 5.61697C176.477 5.04906 176.604 4.03943 177.127 4.03943C177.65 4.03943 177.817 4.32339 177.817 4.64679C177.687 5.11485 177.484 5.55947 177.214 5.96403C173.642 16.1865 170.041 26.4064 166.411 36.6236C164.873 41.0723 163.367 45.5525 161.782 50.0327C160.934 52.6593 159.404 55.3648 157.566 55.3648C157.1 55.327 156.65 55.1836 156.248 54.9457C155.847 54.7079 155.506 54.3817 155.251 53.9923" fill="#3D2B7D"/>
<path d="M174.139 43.8724C173.695 43.3407 173.402 42.7008 173.291 42.0188C173.094 41.1839 172.998 40.3286 173.005 39.4711C173.026 38.1555 173.231 36.8492 173.616 35.5903C173.693 35.3814 173.786 35.1784 173.893 34.983C173.981 34.8124 174.115 34.6697 174.281 34.5708C174.446 34.4719 174.635 34.4207 174.828 34.4229H175.074C175.311 34.4582 175.525 34.5826 175.673 34.7704C175.82 34.9583 175.889 35.1953 175.867 35.4326L175.462 38.138C175.462 38.8243 175.383 39.5894 175.383 40.4018C175.37 40.8869 175.396 41.3723 175.462 41.8532C175.621 42.5788 175.827 42.9022 176.191 42.9022C176.525 42.8633 176.837 42.7228 177.087 42.4999C177.88 41.9399 178.585 41.2931 179.322 40.6463C180.614 39.5105 181.914 38.28 183.285 37.1678C183.503 36.867 183.82 36.6519 184.181 36.5605C184.328 36.581 184.467 36.638 184.585 36.7261V37.0495L183.975 37.7358C182.152 39.5499 180.369 41.3326 178.498 43.1073C178.004 43.5945 177.459 44.0281 176.873 44.4009C176.543 44.6014 176.166 44.7128 175.779 44.7243C175.466 44.7003 175.161 44.6081 174.887 44.454C174.613 44.3 174.377 44.088 174.194 43.833M175.534 30.905C175.433 30.9042 175.333 30.8828 175.241 30.842C175.148 30.8013 175.065 30.7421 174.997 30.6681C174.929 30.5942 174.876 30.507 174.843 30.4121C174.81 30.3171 174.797 30.2164 174.804 30.1162V30.0373C174.804 29.929 174.826 29.8217 174.87 29.7222C174.913 29.6227 174.976 29.5332 175.056 29.4591C175.135 29.3851 175.229 29.3282 175.332 29.292C175.435 29.2558 175.544 29.241 175.653 29.2486H175.74C175.939 29.2645 176.124 29.3545 176.26 29.5008C176.395 29.647 176.47 29.8386 176.469 30.0373C176.429 30.5579 176.184 30.8261 175.74 30.8261L175.534 30.905Z" fill="#3D2B7D"/>
<path d="M181.407 68.7582C181.275 68.2423 181.206 67.7127 181.201 67.1806C181.221 66.2967 181.343 65.418 181.565 64.5619C182.311 61.4577 183.587 58.5041 185.338 55.8302C186.963 53.3692 188.588 50.9398 190.292 48.5183C190.896 47.7114 191.236 46.7395 191.267 45.7339C191.267 44.7243 191.346 43.7541 191.346 42.7839C191.372 41.5265 191.279 40.2694 191.069 39.0294C190.863 37.8935 190.577 37.4518 190.276 37.4518C189.975 37.4518 189.301 38.1381 188.572 38.9032C187.676 39.8339 186.868 40.8435 185.972 41.7349C185.776 41.9465 185.538 42.1164 185.274 42.2343C185.01 42.3522 184.724 42.4158 184.434 42.4211C184.164 42.4111 183.898 42.3452 183.654 42.2275C183.41 42.1099 183.193 41.9431 183.017 41.7377C182.841 41.5322 182.71 41.2927 182.632 41.0342C182.554 40.7758 182.531 40.504 182.564 40.2362C182.556 39.0479 182.789 37.8701 183.249 36.7736C183.71 35.6771 184.388 34.6844 185.243 33.855C185.402 33.6791 185.597 33.5378 185.813 33.4401C186.03 33.3423 186.265 33.2903 186.503 33.2871C186.803 33.2934 187.095 33.3777 187.351 33.5316C187.486 33.6522 187.59 33.8033 187.653 33.9723C187.717 34.1412 187.738 34.3228 187.716 34.5018V34.9435C187.676 35.2669 187.597 35.6298 187.232 35.7323C185.037 36.5211 184.712 38.635 184.672 40.4649C185.528 39.4553 188.857 35.1723 191.092 35.054H191.33C192.384 35.054 193.161 35.5745 193.708 36.9076C194.143 38.1144 194.36 39.3881 194.35 40.67V42.8076C194.781 42.5807 195.167 42.2788 195.491 41.9163C196.91 40.5044 199.51 37.7989 201.42 37.0732C201.622 36.965 201.842 36.8954 202.07 36.8681C202.152 36.8747 202.23 36.9051 202.295 36.9556C202.36 37.0061 202.408 37.0744 202.435 37.1521C202.454 37.2191 202.454 37.2902 202.435 37.3572C202.435 37.6332 202.11 37.7594 201.903 37.8383C199.224 39.2108 196.585 42.3264 194.723 44.5034C194.2 45.1574 193.92 45.971 193.93 46.8067C193.283 52.5063 191.778 58.0767 189.468 63.3314C188.705 65.1682 187.694 66.8931 186.464 68.4584C185.923 69.1798 185.231 69.7748 184.434 70.2016C184.081 70.3813 183.69 70.4758 183.293 70.4777C182.824 70.4515 182.377 70.2644 182.031 69.948C181.684 69.6317 181.458 69.2057 181.391 68.7424M184.395 67.6933C185.227 66.7349 185.911 65.6582 186.424 64.4988C188.19 60.8128 189.471 56.9157 190.236 52.9039C190.41 52.3935 190.519 51.8636 190.561 51.3263C190.563 51.0221 190.51 50.7201 190.403 50.435C188.916 52.4596 187.545 54.5664 186.297 56.7452C184.553 59.5295 182.81 63.0554 182.81 66.6048L182.849 67.3305C182.889 67.7722 183.095 68.3401 183.539 68.3401C183.983 68.3401 184.11 68.0167 184.395 67.7328" fill="#3D2B7D"/>
<path d="M213.919 46.5779C213.309 46.5779 213.063 46.0968 212.984 45.5683C212.799 44.6363 212.677 43.6929 212.62 42.7445C212.54 40.0784 212.54 37.373 212.501 34.7069C212.453 33.9181 212.136 33.5316 211.439 33.5316C210.781 33.5791 210.137 33.742 209.536 34.0128C207.222 34.7069 205.843 35.2275 205.716 35.5903C205.673 35.6656 205.646 35.7488 205.637 35.8349C205.673 36.065 205.757 36.2851 205.882 36.4816C206.234 37.4966 206.411 38.5633 206.406 39.6367C206.379 41.3478 206.022 43.0378 205.351 44.6139C204.987 45.5052 204.464 46.3965 203.362 46.3965C202.26 46.3965 201.499 45.6077 200.984 44.6139C200.667 43.9157 200.49 43.163 200.461 42.3974C200.209 40.285 200.501 38.1433 201.309 36.174C201.92 34.5965 202.324 34.2731 204.194 34.2731C205.454 34.2731 206.707 33.6263 208.007 33.3423C208.458 33.224 212.556 31.9304 212.881 31.9304C214.015 31.9304 214.546 32.5772 214.744 34.1153C214.791 34.5176 214.791 35.2433 214.791 36.0084V38.3747C214.762 38.8861 214.789 39.3992 214.871 39.9049C216.535 37.2783 221.322 29.8875 224.818 29.8875C225.028 29.8875 225.23 29.9706 225.378 30.1185C225.527 30.2665 225.61 30.4671 225.61 30.6763C225.611 30.7615 225.595 30.8461 225.563 30.925C225.531 31.004 225.483 31.0757 225.422 31.136C225.362 31.1963 225.29 31.2439 225.21 31.276C225.131 31.3081 225.046 31.3241 224.96 31.3231C220.411 32.0487 215.378 41.4272 214.855 45.521C214.775 46.0889 214.609 46.57 213.959 46.57L213.919 46.5779ZM204.662 39.55C204.681 38.4336 204.37 37.3363 203.766 36.3949C203.254 37.923 202.968 39.5173 202.918 41.1275C202.923 42.0671 203.046 43.0023 203.283 43.9119C204.166 42.6111 204.646 41.0805 204.662 39.5105" fill="#3D2B7D"/>
<path d="M233.489 20.2566C234.071 20.255 234.64 20.4253 235.125 20.7459C235.609 21.0665 235.987 21.523 236.211 22.0576C236.435 22.5922 236.494 23.1808 236.382 23.749C236.269 24.3172 235.99 24.8393 235.579 25.2494C235.168 25.6594 234.644 25.9389 234.073 26.0525C233.503 26.166 232.911 26.1085 232.373 25.8873C231.836 25.666 231.376 25.2909 231.052 24.8095C230.729 24.3281 230.556 23.762 230.556 23.1829C230.558 22.4088 230.868 21.6669 231.417 21.1188C231.966 20.5706 232.711 20.2608 233.489 20.2566ZM233.489 19.6808C232.793 19.6808 232.112 19.8862 231.534 20.271C230.955 20.6558 230.504 21.2028 230.238 21.8427C229.971 22.4827 229.902 23.1868 230.037 23.8662C230.173 24.5455 230.508 25.1695 231 25.6593C231.493 26.1491 232.12 26.4827 232.802 26.6178C233.485 26.7529 234.193 26.6836 234.836 26.4185C235.479 26.1534 236.028 25.7045 236.415 25.1286C236.802 24.5527 237.008 23.8756 237.008 23.1829C237.008 22.723 236.917 22.2676 236.74 21.8427C236.563 21.4178 236.304 21.0317 235.977 20.7065C235.65 20.3813 235.263 20.1234 234.836 19.9474C234.409 19.7714 233.951 19.6808 233.489 19.6808Z" fill="#3D2B7D"/>
<path d="M231.848 21.1085C232.281 21.0416 232.718 21.01 233.156 21.0138C233.646 20.9681 234.137 21.0875 234.551 21.353C234.682 21.4623 234.786 21.6004 234.855 21.7564C234.924 21.9123 234.955 22.0821 234.947 22.2522C234.942 22.4886 234.863 22.7174 234.721 22.9069C234.579 23.0963 234.381 23.237 234.155 23.3091C234.307 23.3851 234.438 23.4964 234.537 23.6338C234.637 23.7712 234.701 23.9304 234.725 24.0979C234.822 24.5063 234.941 24.9091 235.082 25.3047H234.083C233.949 24.9818 233.848 24.6462 233.782 24.303C233.663 23.7666 233.481 23.6247 233.085 23.6168H232.791V25.3047H231.816L231.848 21.1085ZM232.823 22.9542H233.203C233.687 22.9542 233.996 22.7097 233.996 22.339C233.996 21.9682 233.727 21.7395 233.275 21.7395C233.13 21.724 232.984 21.724 232.839 21.7395L232.823 22.9542Z" fill="#3D2B7D"/>
</g>
<path d="M73.26 85V76.6H74.244L79.8 83.5H79.284V76.6H80.484V85H79.5L73.944 78.1H74.46V85H73.26ZM85.5063 85.072C84.9623 85.072 84.4823 84.972 84.0663 84.772C83.6583 84.572 83.3383 84.268 83.1063 83.86C82.8823 83.444 82.7703 82.924 82.7703 82.3V78.64H83.9223V82.168C83.9223 82.792 84.0703 83.26 84.3663 83.572C84.6703 83.884 85.0943 84.04 85.6383 84.04C86.0383 84.04 86.3863 83.96 86.6823 83.8C86.9783 83.632 87.2063 83.392 87.3663 83.08C87.5263 82.76 87.6063 82.376 87.6063 81.928V78.64H88.7583V85H87.6663V83.284L87.8463 83.74C87.6383 84.164 87.3263 84.492 86.9103 84.724C86.4943 84.956 86.0263 85.072 85.5063 85.072ZM93.1354 85.072C92.4954 85.072 91.9994 84.9 91.6474 84.556C91.2954 84.212 91.1194 83.72 91.1194 83.08V77.248H92.2714V83.032C92.2714 83.376 92.3554 83.64 92.5234 83.824C92.6994 84.008 92.9474 84.1 93.2674 84.1C93.6274 84.1 93.9274 84 94.1674 83.8L94.5274 84.628C94.3514 84.78 94.1394 84.892 93.8914 84.964C93.6514 85.036 93.3994 85.072 93.1354 85.072ZM90.0394 79.588V78.64H94.0954V79.588H90.0394ZM95.9201 85V78.64H97.0241V80.368L96.9161 79.936C97.0921 79.496 97.3881 79.16 97.8041 78.928C98.2201 78.696 98.7321 78.58 99.3401 78.58V79.696C99.2921 79.688 99.2441 79.684 99.1961 79.684C99.1561 79.684 99.1161 79.684 99.0761 79.684C98.4601 79.684 97.9721 79.868 97.6121 80.236C97.2521 80.604 97.0721 81.136 97.0721 81.832V85H95.9201ZM100.76 85V78.64H101.912V85H100.76ZM101.336 77.416C101.112 77.416 100.924 77.344 100.772 77.2C100.628 77.056 100.556 76.88 100.556 76.672C100.556 76.456 100.628 76.276 100.772 76.132C100.924 75.988 101.112 75.916 101.336 75.916C101.56 75.916 101.744 75.988 101.888 76.132C102.04 76.268 102.116 76.44 102.116 76.648C102.116 76.864 102.044 77.048 101.9 77.2C101.756 77.344 101.568 77.416 101.336 77.416ZM106.296 85.072C105.656 85.072 105.16 84.9 104.808 84.556C104.456 84.212 104.28 83.72 104.28 83.08V77.248H105.432V83.032C105.432 83.376 105.516 83.64 105.684 83.824C105.86 84.008 106.108 84.1 106.428 84.1C106.788 84.1 107.088 84 107.328 83.8L107.688 84.628C107.512 84.78 107.3 84.892 107.052 84.964C106.812 85.036 106.56 85.072 106.296 85.072ZM103.2 79.588V78.64H107.256V79.588H103.2ZM109.08 85V78.64H110.232V85H109.08ZM109.656 77.416C109.432 77.416 109.244 77.344 109.092 77.2C108.948 77.056 108.876 76.88 108.876 76.672C108.876 76.456 108.948 76.276 109.092 76.132C109.244 75.988 109.432 75.916 109.656 75.916C109.88 75.916 110.064 75.988 110.208 76.132C110.36 76.268 110.436 76.44 110.436 76.648C110.436 76.864 110.364 77.048 110.22 77.2C110.076 77.344 109.888 77.416 109.656 77.416ZM115.156 85.072C114.516 85.072 113.948 84.932 113.452 84.652C112.956 84.372 112.564 83.988 112.276 83.5C111.988 83.004 111.844 82.444 111.844 81.82C111.844 81.188 111.988 80.628 112.276 80.14C112.564 79.652 112.956 79.272 113.452 79C113.948 78.72 114.516 78.58 115.156 78.58C115.788 78.58 116.352 78.72 116.848 79C117.352 79.272 117.744 79.652 118.024 80.14C118.312 80.62 118.456 81.18 118.456 81.82C118.456 82.452 118.312 83.012 118.024 83.5C117.744 83.988 117.352 84.372 116.848 84.652C116.352 84.932 115.788 85.072 115.156 85.072ZM115.156 84.064C115.564 84.064 115.928 83.972 116.248 83.788C116.576 83.604 116.832 83.344 117.016 83.008C117.2 82.664 117.292 82.268 117.292 81.82C117.292 81.364 117.2 80.972 117.016 80.644C116.832 80.308 116.576 80.048 116.248 79.864C115.928 79.68 115.564 79.588 115.156 79.588C114.748 79.588 114.384 79.68 114.064 79.864C113.744 80.048 113.488 80.308 113.296 80.644C113.104 80.972 113.008 81.364 113.008 81.82C113.008 82.268 113.104 82.664 113.296 83.008C113.488 83.344 113.744 83.604 114.064 83.788C114.384 83.972 114.748 84.064 115.156 84.064ZM123.445 78.58C123.965 78.58 124.421 78.68 124.813 78.88C125.213 79.08 125.525 79.384 125.749 79.792C125.973 80.2 126.085 80.716 126.085 81.34V85H124.933V81.472C124.933 80.856 124.781 80.392 124.477 80.08C124.181 79.768 123.761 79.612 123.217 79.612C122.809 79.612 122.453 79.692 122.149 79.852C121.845 80.012 121.609 80.248 121.441 80.56C121.281 80.872 121.201 81.26 121.201 81.724V85H120.049V78.64H121.153V80.356L120.973 79.9C121.181 79.484 121.501 79.16 121.933 78.928C122.365 78.696 122.869 78.58 123.445 78.58ZM132.165 85V83.656L132.105 83.404V81.112C132.105 80.624 131.961 80.248 131.673 79.984C131.393 79.712 130.969 79.576 130.401 79.576C130.025 79.576 129.657 79.64 129.297 79.768C128.937 79.888 128.633 80.052 128.385 80.26L127.905 79.396C128.233 79.132 128.625 78.932 129.081 78.796C129.545 78.652 130.029 78.58 130.533 78.58C131.405 78.58 132.077 78.792 132.549 79.216C133.021 79.64 133.257 80.288 133.257 81.16V85H132.165ZM130.077 85.072C129.605 85.072 129.189 84.992 128.829 84.832C128.477 84.672 128.205 84.452 128.013 84.172C127.821 83.884 127.725 83.56 127.725 83.2C127.725 82.856 127.805 82.544 127.965 82.264C128.133 81.984 128.401 81.76 128.769 81.592C129.145 81.424 129.649 81.34 130.281 81.34H132.297V82.168H130.329C129.753 82.168 129.365 82.264 129.165 82.456C128.965 82.648 128.865 82.88 128.865 83.152C128.865 83.464 128.989 83.716 129.237 83.908C129.485 84.092 129.829 84.184 130.269 84.184C130.701 84.184 131.077 84.088 131.397 83.896C131.725 83.704 131.961 83.424 132.105 83.056L132.333 83.848C132.181 84.224 131.913 84.524 131.529 84.748C131.145 84.964 130.661 85.072 130.077 85.072ZM135.389 85V76.096H136.541V85H135.389ZM144.579 85.096C143.939 85.096 143.327 85 142.743 84.808C142.159 84.608 141.699 84.352 141.363 84.04L141.807 83.104C142.127 83.384 142.535 83.616 143.031 83.8C143.527 83.984 144.043 84.076 144.579 84.076C145.067 84.076 145.463 84.02 145.767 83.908C146.071 83.796 146.295 83.644 146.439 83.452C146.583 83.252 146.655 83.028 146.655 82.78C146.655 82.492 146.559 82.26 146.367 82.084C146.183 81.908 145.939 81.768 145.635 81.664C145.339 81.552 145.011 81.456 144.651 81.376C144.291 81.296 143.927 81.204 143.559 81.1C143.199 80.988 142.867 80.848 142.563 80.68C142.267 80.512 142.027 80.288 141.843 80.008C141.659 79.72 141.567 79.352 141.567 78.904C141.567 78.472 141.679 78.076 141.903 77.716C142.135 77.348 142.487 77.056 142.959 76.84C143.439 76.616 144.047 76.504 144.783 76.504C145.271 76.504 145.755 76.568 146.235 76.696C146.715 76.824 147.131 77.008 147.483 77.248L147.087 78.208C146.727 77.968 146.347 77.796 145.947 77.692C145.547 77.58 145.159 77.524 144.783 77.524C144.311 77.524 143.923 77.584 143.619 77.704C143.315 77.824 143.091 77.984 142.947 78.184C142.811 78.384 142.743 78.608 142.743 78.856C142.743 79.152 142.835 79.388 143.019 79.564C143.211 79.74 143.455 79.88 143.751 79.984C144.055 80.088 144.387 80.184 144.747 80.272C145.107 80.352 145.467 80.444 145.827 80.548C146.195 80.652 146.527 80.788 146.823 80.956C147.127 81.124 147.371 81.348 147.555 81.628C147.739 81.908 147.831 82.268 147.831 82.708C147.831 83.132 147.715 83.528 147.483 83.896C147.251 84.256 146.891 84.548 146.403 84.772C145.923 84.988 145.315 85.096 144.579 85.096ZM152.092 85.072C151.548 85.072 151.068 84.972 150.652 84.772C150.244 84.572 149.924 84.268 149.692 83.86C149.468 83.444 149.356 82.924 149.356 82.3V78.64H150.508V82.168C150.508 82.792 150.656 83.26 150.952 83.572C151.256 83.884 151.68 84.04 152.224 84.04C152.624 84.04 152.972 83.96 153.268 83.8C153.564 83.632 153.792 83.392 153.952 83.08C154.112 82.76 154.192 82.376 154.192 81.928V78.64H155.344V85H154.252V83.284L154.432 83.74C154.224 84.164 153.912 84.492 153.496 84.724C153.08 84.956 152.612 85.072 152.092 85.072ZM160.909 85.072C160.381 85.072 159.897 84.952 159.457 84.712C159.025 84.464 158.677 84.1 158.413 83.62C158.157 83.14 158.029 82.54 158.029 81.82C158.029 81.1 158.153 80.5 158.401 80.02C158.657 79.54 159.001 79.18 159.433 78.94C159.873 78.7 160.365 78.58 160.909 78.58C161.533 78.58 162.085 78.716 162.565 78.988C163.045 79.26 163.425 79.64 163.705 80.128C163.985 80.608 164.125 81.172 164.125 81.82C164.125 82.468 163.985 83.036 163.705 83.524C163.425 84.012 163.045 84.392 162.565 84.664C162.085 84.936 161.533 85.072 160.909 85.072ZM157.537 87.328V78.64H158.641V80.356L158.569 81.832L158.689 83.308V87.328H157.537ZM160.813 84.064C161.221 84.064 161.585 83.972 161.905 83.788C162.233 83.604 162.489 83.344 162.673 83.008C162.865 82.664 162.961 82.268 162.961 81.82C162.961 81.364 162.865 80.972 162.673 80.644C162.489 80.308 162.233 80.048 161.905 79.864C161.585 79.68 161.221 79.588 160.813 79.588C160.413 79.588 160.049 79.68 159.721 79.864C159.401 80.048 159.145 80.308 158.953 80.644C158.769 80.972 158.677 81.364 158.677 81.82C158.677 82.268 158.769 82.664 158.953 83.008C159.145 83.344 159.401 83.604 159.721 83.788C160.049 83.972 160.413 84.064 160.813 84.064ZM169.089 85.072C168.561 85.072 168.077 84.952 167.637 84.712C167.205 84.464 166.857 84.1 166.593 83.62C166.337 83.14 166.209 82.54 166.209 81.82C166.209 81.1 166.333 80.5 166.581 80.02C166.837 79.54 167.181 79.18 167.613 78.94C168.053 78.7 168.545 78.58 169.089 78.58C169.713 78.58 170.265 78.716 170.745 78.988C171.225 79.26 171.605 79.64 171.885 80.128C172.165 80.608 172.305 81.172 172.305 81.82C172.305 82.468 172.165 83.036 171.885 83.524C171.605 84.012 171.225 84.392 170.745 84.664C170.265 84.936 169.713 85.072 169.089 85.072ZM165.717 87.328V78.64H166.821V80.356L166.749 81.832L166.869 83.308V87.328H165.717ZM168.993 84.064C169.401 84.064 169.765 83.972 170.085 83.788C170.413 83.604 170.669 83.344 170.853 83.008C171.045 82.664 171.141 82.268 171.141 81.82C171.141 81.364 171.045 80.972 170.853 80.644C170.669 80.308 170.413 80.048 170.085 79.864C169.765 79.68 169.401 79.588 168.993 79.588C168.593 79.588 168.229 79.68 167.901 79.864C167.581 80.048 167.325 80.308 167.133 80.644C166.949 80.972 166.857 81.364 166.857 81.82C166.857 82.268 166.949 82.664 167.133 83.008C167.325 83.344 167.581 83.604 167.901 83.788C168.229 83.972 168.593 84.064 168.993 84.064ZM173.897 85V76.096H175.049V85H173.897ZM180.08 85.072C179.4 85.072 178.8 84.932 178.28 84.652C177.768 84.372 177.368 83.988 177.08 83.5C176.8 83.012 176.66 82.452 176.66 81.82C176.66 81.188 176.796 80.628 177.068 80.14C177.348 79.652 177.728 79.272 178.208 79C178.696 78.72 179.244 78.58 179.852 78.58C180.468 78.58 181.012 78.716 181.484 78.988C181.956 79.26 182.324 79.644 182.588 80.14C182.86 80.628 182.996 81.2 182.996 81.856C182.996 81.904 182.992 81.96 182.984 82.024C182.984 82.088 182.98 82.148 182.972 82.204H177.56V81.376H182.372L181.904 81.664C181.912 81.256 181.828 80.892 181.652 80.572C181.476 80.252 181.232 80.004 180.92 79.828C180.616 79.644 180.26 79.552 179.852 79.552C179.452 79.552 179.096 79.644 178.784 79.828C178.472 80.004 178.228 80.256 178.052 80.584C177.876 80.904 177.788 81.272 177.788 81.688V81.88C177.788 82.304 177.884 82.684 178.076 83.02C178.276 83.348 178.552 83.604 178.904 83.788C179.256 83.972 179.66 84.064 180.116 84.064C180.492 84.064 180.832 84 181.136 83.872C181.448 83.744 181.72 83.552 181.952 83.296L182.588 84.04C182.3 84.376 181.94 84.632 181.508 84.808C181.084 84.984 180.608 85.072 180.08 85.072ZM192.552 78.58C193.064 78.58 193.516 78.68 193.908 78.88C194.3 79.08 194.604 79.384 194.82 79.792C195.044 80.2 195.156 80.716 195.156 81.34V85H194.004V81.472C194.004 80.856 193.86 80.392 193.572 80.08C193.284 79.768 192.88 79.612 192.36 79.612C191.976 79.612 191.64 79.692 191.352 79.852C191.064 80.012 190.84 80.248 190.68 80.56C190.528 80.872 190.452 81.26 190.452 81.724V85H189.3V81.472C189.3 80.856 189.156 80.392 188.868 80.08C188.588 79.768 188.184 79.612 187.656 79.612C187.28 79.612 186.948 79.692 186.66 79.852C186.372 80.012 186.148 80.248 185.988 80.56C185.828 80.872 185.748 81.26 185.748 81.724V85H184.596V78.64H185.7V80.332L185.52 79.9C185.72 79.484 186.028 79.16 186.444 78.928C186.86 78.696 187.344 78.58 187.896 78.58C188.504 78.58 189.028 78.732 189.468 79.036C189.908 79.332 190.196 79.784 190.332 80.392L189.864 80.2C190.056 79.712 190.392 79.32 190.872 79.024C191.352 78.728 191.912 78.58 192.552 78.58ZM200.108 85.072C199.428 85.072 198.828 84.932 198.308 84.652C197.796 84.372 197.396 83.988 197.108 83.5C196.828 83.012 196.688 82.452 196.688 81.82C196.688 81.188 196.824 80.628 197.096 80.14C197.376 79.652 197.756 79.272 198.236 79C198.724 78.72 199.272 78.58 199.88 78.58C200.496 78.58 201.04 78.716 201.512 78.988C201.984 79.26 202.352 79.644 202.616 80.14C202.888 80.628 203.024 81.2 203.024 81.856C203.024 81.904 203.02 81.96 203.012 82.024C203.012 82.088 203.008 82.148 203 82.204H197.588V81.376H202.4L201.932 81.664C201.94 81.256 201.856 80.892 201.68 80.572C201.504 80.252 201.26 80.004 200.948 79.828C200.644 79.644 200.288 79.552 199.88 79.552C199.48 79.552 199.124 79.644 198.812 79.828C198.5 80.004 198.256 80.256 198.08 80.584C197.904 80.904 197.816 81.272 197.816 81.688V81.88C197.816 82.304 197.912 82.684 198.104 83.02C198.304 83.348 198.58 83.604 198.932 83.788C199.284 83.972 199.688 84.064 200.144 84.064C200.52 84.064 200.86 84 201.164 83.872C201.476 83.744 201.748 83.552 201.98 83.296L202.616 84.04C202.328 84.376 201.968 84.632 201.536 84.808C201.112 84.984 200.636 85.072 200.108 85.072ZM208.019 78.58C208.539 78.58 208.995 78.68 209.387 78.88C209.787 79.08 210.099 79.384 210.323 79.792C210.547 80.2 210.659 80.716 210.659 81.34V85H209.507V81.472C209.507 80.856 209.355 80.392 209.051 80.08C208.755 79.768 208.335 79.612 207.791 79.612C207.383 79.612 207.027 79.692 206.723 79.852C206.419 80.012 206.183 80.248 206.015 80.56C205.855 80.872 205.775 81.26 205.775 81.724V85H204.623V78.64H205.727V80.356L205.547 79.9C205.755 79.484 206.075 79.16 206.507 78.928C206.939 78.696 207.443 78.58 208.019 78.58ZM214.975 85.072C214.335 85.072 213.839 84.9 213.487 84.556C213.135 84.212 212.959 83.72 212.959 83.08V77.248H214.111V83.032C214.111 83.376 214.195 83.64 214.363 83.824C214.539 84.008 214.787 84.1 215.107 84.1C215.467 84.1 215.767 84 216.007 83.8L216.367 84.628C216.191 84.78 215.979 84.892 215.731 84.964C215.491 85.036 215.239 85.072 214.975 85.072ZM211.879 79.588V78.64H215.935V79.588H211.879ZM219.584 85.072C219.056 85.072 218.552 85 218.072 84.856C217.6 84.712 217.228 84.536 216.956 84.328L217.436 83.416C217.708 83.6 218.044 83.756 218.444 83.884C218.844 84.012 219.252 84.076 219.668 84.076C220.204 84.076 220.588 84 220.82 83.848C221.06 83.696 221.18 83.484 221.18 83.212C221.18 83.012 221.108 82.856 220.964 82.744C220.82 82.632 220.628 82.548 220.388 82.492C220.156 82.436 219.896 82.388 219.608 82.348C219.32 82.3 219.032 82.244 218.744 82.18C218.456 82.108 218.192 82.012 217.952 81.892C217.712 81.764 217.52 81.592 217.376 81.376C217.232 81.152 217.16 80.856 217.16 80.488C217.16 80.104 217.268 79.768 217.484 79.48C217.7 79.192 218.004 78.972 218.396 78.82C218.796 78.66 219.268 78.58 219.812 78.58C220.228 78.58 220.648 78.632 221.072 78.736C221.504 78.832 221.856 78.972 222.128 79.156L221.636 80.068C221.348 79.876 221.048 79.744 220.736 79.672C220.424 79.6 220.112 79.564 219.8 79.564C219.296 79.564 218.92 79.648 218.672 79.816C218.424 79.976 218.3 80.184 218.3 80.44C218.3 80.656 218.372 80.824 218.516 80.944C218.668 81.056 218.86 81.144 219.092 81.208C219.332 81.272 219.596 81.328 219.884 81.376C220.172 81.416 220.46 81.472 220.748 81.544C221.036 81.608 221.296 81.7 221.528 81.82C221.768 81.94 221.96 82.108 222.104 82.324C222.256 82.54 222.332 82.828 222.332 83.188C222.332 83.572 222.22 83.904 221.996 84.184C221.772 84.464 221.456 84.684 221.048 84.844C220.64 84.996 220.152 85.072 219.584 85.072Z" fill="#2C2A77"/>
<defs>
<clipPath id="clip0_791_618">
<rect width="180" height="78" fill="white" transform="translate(57 4)"/>
</clipPath>
</defs>
</svg>
