<svg width="33" height="23" viewBox="0 0 33 23" fill="none" xmlns="http://www.w3.org/2000/svg">
<rect x="1.16406" y="0.5" width="30.8007" height="21.5366" rx="2" fill="white" stroke="#D9D9D9"/>
<path fill-rule="evenodd" clip-rule="evenodd" d="M16.8609 16.4761C15.6475 17.5132 14.0735 18.1393 12.3536 18.1393C8.51587 18.1393 5.40479 15.0222 5.40479 11.177C5.40479 7.33193 8.51587 4.21484 12.3536 4.21484C14.0735 4.21484 15.6475 4.84093 16.8609 5.87804C18.0743 4.84094 19.6483 4.21486 21.3682 4.21486C25.206 4.21486 28.317 7.33195 28.317 11.1771C28.317 15.0222 25.206 18.1393 21.3682 18.1393C19.6483 18.1393 18.0743 17.5132 16.8609 16.4761Z" fill="#ED0006"/>
<path fill-rule="evenodd" clip-rule="evenodd" d="M16.8608 16.4761C18.3549 15.1991 19.3023 13.2989 19.3023 11.177C19.3023 9.05518 18.3549 7.15501 16.8608 5.87802C18.0742 4.84092 19.6482 4.21484 21.3682 4.21484C25.2059 4.21484 28.317 7.33193 28.317 11.177C28.317 15.0222 25.2059 18.1393 21.3682 18.1393C19.6482 18.1393 18.0742 17.5132 16.8608 16.4761Z" fill="#F9A000"/>
<path fill-rule="evenodd" clip-rule="evenodd" d="M16.8609 16.4759C18.3549 15.1989 19.3023 13.2988 19.3023 11.1769C19.3023 9.05508 18.3549 7.15493 16.8609 5.87793C15.3668 7.15493 14.4194 9.05508 14.4194 11.1769C14.4194 13.2988 15.3668 15.1989 16.8609 16.4759Z" fill="#FF5E00"/>
</svg>
