<svg width="33" height="23" viewBox="0 0 33 23" fill="none" xmlns="http://www.w3.org/2000/svg">
<rect x="0.964844" y="0.5" width="30.8007" height="21.5366" rx="2" fill="white" stroke="#D9D9D9"/>
<path fill-rule="evenodd" clip-rule="evenodd" d="M9.59016 14.3115H8.15626C8.05813 14.3115 7.97468 14.3842 7.95938 14.4828L7.37943 18.2286C7.36791 18.3026 7.4241 18.3692 7.49769 18.3692H8.18225C8.28037 18.3692 8.36383 18.2966 8.37913 18.1977L8.53555 17.1874C8.55063 17.0885 8.63429 17.0159 8.73221 17.0159H9.18613C10.1307 17.0159 10.6758 16.5503 10.8182 15.6275C10.8824 15.2239 10.821 14.9067 10.6353 14.6845C10.4316 14.4406 10.0701 14.3115 9.59016 14.3115ZM9.75559 15.6796C9.67719 16.2038 9.28406 16.2038 8.90393 16.2038H8.68755L8.83935 15.2249C8.84836 15.1657 8.89868 15.1222 8.95739 15.1222H9.05656C9.3155 15.1222 9.55979 15.1222 9.68602 15.2725C9.76122 15.3622 9.78431 15.4955 9.75559 15.6796ZM13.8764 15.6628H13.1898C13.1313 15.6628 13.0807 15.7064 13.0717 15.7656L13.0413 15.9612L12.9933 15.8904C12.8447 15.6705 12.5132 15.5971 12.1823 15.5971C11.4235 15.5971 10.7754 16.1826 10.6492 17.0039C10.5836 17.4135 10.6769 17.8052 10.905 18.0784C11.1143 18.3296 11.4137 18.4342 11.7699 18.4342C12.3813 18.4342 12.7204 18.0337 12.7204 18.0337L12.6897 18.2282C12.6782 18.3025 12.7343 18.3691 12.8075 18.3691H13.426C13.5244 18.3691 13.6074 18.2965 13.6229 18.1976L13.994 15.8034C14.0058 15.7298 13.9498 15.6628 13.8764 15.6628ZM12.9193 17.0243C12.853 17.424 12.5416 17.6922 12.1446 17.6922C11.9452 17.6922 11.7858 17.6271 11.6835 17.5036C11.582 17.3811 11.5434 17.2065 11.5757 17.0122C11.6376 16.6159 11.9542 16.3389 12.3453 16.3389C12.5402 16.3389 12.6987 16.4049 12.8031 16.5294C12.9077 16.6552 12.9492 16.8308 12.9193 17.0243ZM16.8435 15.6627H17.5335C17.6301 15.6627 17.6865 15.7731 17.6316 15.8539L15.3366 19.2287C15.2995 19.2833 15.2382 19.3158 15.1728 19.3158H14.4836C14.3866 19.3158 14.33 19.2045 14.3861 19.1236L15.1007 18.096L14.3407 15.8238C14.3144 15.7448 14.3717 15.6627 14.4541 15.6627H15.1322C15.2203 15.6627 15.298 15.7216 15.3234 15.8075L15.7268 17.1799L16.6785 15.7518C16.7158 15.696 16.7777 15.6627 16.8435 15.6627Z" fill="#3D2B7D"/>
<path fill-rule="evenodd" clip-rule="evenodd" d="M24.3251 18.2288L24.9135 14.4145C24.9226 14.3553 24.9729 14.3117 25.0314 14.3115H25.6939C25.7671 14.3115 25.8233 14.3783 25.8117 14.4523L25.2314 18.1979C25.2163 18.2968 25.1328 18.3694 25.0345 18.3694H24.4429C24.3697 18.3694 24.3135 18.3028 24.3251 18.2288ZM19.8182 14.3117H18.3841C18.2862 14.3117 18.2027 14.3844 18.1874 14.483L17.6075 18.2288C17.5959 18.3028 17.6521 18.3694 17.7254 18.3694H18.4612C18.5296 18.3694 18.5881 18.3186 18.5988 18.2494L18.7634 17.1876C18.7785 17.0887 18.8621 17.0161 18.96 17.0161H19.4137C20.3585 17.0161 20.9035 16.5505 21.046 15.6277C21.1104 15.2241 21.0485 14.9069 20.863 14.6847C20.6594 14.4408 20.2981 14.3117 19.8182 14.3117ZM19.9837 15.6798C19.9055 16.204 19.5123 16.204 19.132 16.204H18.9158L19.0678 15.225C19.0769 15.1659 19.1267 15.1223 19.1856 15.1223H19.2848C19.5436 15.1223 19.7881 15.1223 19.9142 15.2727C19.9895 15.3624 20.0124 15.4957 19.9837 15.6798ZM24.1041 15.663H23.418C23.359 15.663 23.3089 15.7066 23.3001 15.7658L23.2697 15.9614L23.2215 15.8906C23.0728 15.6707 22.7416 15.5973 22.4107 15.5973C21.6519 15.5973 21.004 16.1828 20.8778 17.0041C20.8124 17.4137 20.9052 17.8054 21.1334 18.0786C21.343 18.3298 21.6421 18.4344 21.9983 18.4344C22.6096 18.4344 22.9486 18.0339 22.9486 18.0339L22.9181 18.2284C22.9065 18.3027 22.9627 18.3693 23.0364 18.3693H23.6546C23.7525 18.3693 23.836 18.2967 23.8513 18.1978L24.2226 15.8036C24.234 15.7299 24.1778 15.663 24.1041 15.663ZM23.1471 17.0245C23.0812 17.4241 22.7694 17.6924 22.3723 17.6924C22.1733 17.6924 22.0136 17.6273 21.9112 17.5038C21.8097 17.3813 21.7716 17.2067 21.8035 17.0124C21.8657 16.6161 22.1819 16.3391 22.5729 16.3391C22.768 16.3391 22.9264 16.4051 23.0309 16.5296C23.1359 16.6554 23.1774 16.831 23.1471 17.0245Z" fill="#179BD7"/>
<path d="M14.8966 12.9717L15.0729 11.8311L14.6802 11.8218H12.8052L14.1083 3.40452C14.1122 3.37911 14.1254 3.35542 14.1446 3.3386C14.1639 3.32177 14.1885 3.3125 14.2141 3.3125H17.3758C18.4254 3.3125 19.1497 3.53501 19.5279 3.97419C19.7052 4.18022 19.8181 4.39551 19.8728 4.63245C19.93 4.88106 19.9311 5.17808 19.8751 5.54035L19.871 5.56679V5.7989L20.0484 5.90124C20.1977 5.98193 20.3163 6.0743 20.4073 6.18006C20.559 6.35621 20.6571 6.5801 20.6986 6.84552C20.7413 7.11851 20.7272 7.44335 20.6571 7.81111C20.5762 8.23416 20.4454 8.6026 20.2688 8.90409C20.1063 9.18188 19.8993 9.41224 19.6537 9.59085C19.4191 9.76047 19.1403 9.88926 18.8251 9.9717C18.5197 10.0527 18.1716 10.0936 17.7897 10.0936H17.5436C17.3677 10.0936 17.1967 10.1581 17.0626 10.2739C16.9282 10.392 16.8391 10.5533 16.8118 10.7298L16.7933 10.8325L16.4818 12.8429L16.4677 12.9168C16.464 12.9402 16.4576 12.9519 16.4482 12.9598C16.4397 12.9669 16.4276 12.9717 16.4158 12.9717H14.8966Z" fill="#3D2B7D"/>
<path d="M20.2165 5.59375C20.2071 5.65521 20.1963 5.71805 20.1842 5.7826C19.7672 7.96341 18.3408 8.71678 16.5189 8.71678H15.5913C15.3685 8.71678 15.1808 8.8816 15.146 9.10548L14.6711 12.174L14.5366 13.0437C14.514 13.1907 14.6253 13.3232 14.7708 13.3232H16.4161C16.611 13.3232 16.7764 13.179 16.8071 12.9833L16.8233 12.8981L17.1331 10.8955L17.153 10.7857C17.1832 10.5893 17.3491 10.4451 17.5439 10.4451H17.7899C19.3839 10.4451 20.6318 9.78576 20.9965 7.87791C21.1488 7.08092 21.07 6.41546 20.6668 5.94743C20.5449 5.8063 20.3935 5.6892 20.2165 5.59375Z" fill="#179BD7"/>
<path d="M19.7798 5.41662C19.7162 5.39773 19.6504 5.38056 19.583 5.36511C19.5152 5.35001 19.4458 5.33661 19.3744 5.32494C19.1242 5.28373 18.8502 5.26416 18.5566 5.26416H16.0785C16.0175 5.26416 15.9596 5.27824 15.9077 5.30365C15.7934 5.35961 15.7085 5.46985 15.6879 5.60479L15.1606 9.00631L15.1455 9.10554C15.1802 8.88166 15.368 8.71683 15.5908 8.71683H16.5184C18.3402 8.71683 19.7667 7.96312 20.1837 5.78266C20.1961 5.71811 20.2066 5.65527 20.216 5.59381C20.1105 5.5368 19.9962 5.48804 19.8732 5.44649C19.8429 5.43619 19.8116 5.42624 19.7798 5.41662Z" fill="#222D65"/>
<path d="M15.6883 5.60461C15.7088 5.46966 15.7938 5.35944 15.908 5.30381C15.9603 5.2784 16.018 5.26432 16.0789 5.26432H18.5571C18.8507 5.26432 19.1247 5.28389 19.3747 5.3251C19.4462 5.33677 19.5157 5.35017 19.5834 5.36527C19.6509 5.38073 19.7166 5.3979 19.7803 5.41678C19.8119 5.4264 19.8433 5.43635 19.8739 5.44631C19.997 5.48786 20.1113 5.53696 20.2167 5.59362C20.3408 4.78771 20.2158 4.23899 19.7881 3.74212C19.3165 3.19512 18.4654 2.96094 17.3763 2.96094H14.2146C13.9921 2.96094 13.8024 3.12575 13.768 3.34998L12.4511 11.8538C12.4251 12.022 12.5525 12.1738 12.719 12.1738H14.671L15.1611 9.00612L15.6883 5.60461Z" fill="#3D2B7D"/>
</svg>
