<svg width="16" height="16" viewBox="0 0 16 16" fill="none" xmlns="http://www.w3.org/2000/svg">
<path fill-rule="evenodd" clip-rule="evenodd" d="M8.00001 0C5.82771 0 5.55459 0.00952759 4.70028 0.047638C3.84915 0.0857483 3.26797 0.22231 2.75983 0.419214C2.23263 0.622469 1.78801 0.898769 1.34339 1.34339C0.89877 1.78801 0.625646 2.23581 0.419214 2.75983C0.222311 3.26796 0.0857484 3.84915 0.047638 4.70345C0.0095276 5.55459 0 5.82771 0 8C0 10.1723 0.0095276 10.4454 0.047638 11.2997C0.0857484 12.1509 0.222311 12.732 0.419214 13.2434C0.62247 13.7705 0.89877 14.2152 1.34339 14.6598C1.78801 15.1044 2.23581 15.3775 2.75983 15.584C3.26797 15.7809 3.84915 15.9174 4.70346 15.9555C5.55777 15.9936 5.82771 16.0032 8.00318 16.0032C10.1786 16.0032 10.4486 15.9936 11.3029 15.9555C12.154 15.9174 12.7352 15.7809 13.2465 15.584C13.7737 15.3807 14.2184 15.1044 14.663 14.6598C15.1076 14.2152 15.3807 13.7674 15.5871 13.2434C15.7841 12.7352 15.9206 12.154 15.9587 11.2997C15.9968 10.4454 16.0064 10.1755 16.0064 8C16.0064 5.82453 15.9968 5.55458 15.9587 4.70028C15.9206 3.84915 15.7841 3.26796 15.5871 2.75665C15.3839 2.22946 15.1076 1.78484 14.663 1.34021C14.2184 0.895594 13.7706 0.622469 13.2465 0.416038C12.7384 0.219135 12.1572 0.0825724 11.3029 0.0444621C10.4454 0.00952759 10.1723 0 8.00001 0ZM8 3.89361C5.73243 3.89361 3.89043 5.73243 3.89043 8.00317C3.89043 10.2739 5.72926 12.1127 8 12.1127C10.2707 12.1127 12.1096 10.2739 12.1096 8.00317C12.1096 5.73243 10.2707 3.89361 8 3.89361ZM8 10.6677C6.5264 10.6677 5.33227 9.4736 5.33227 8C5.33227 6.5264 6.5264 5.33227 8 5.33227C9.4736 5.33227 10.6677 6.5264 10.6677 8C10.6677 9.4736 9.4736 10.6677 8 10.6677ZM13.2306 3.72846C13.2306 4.25817 12.8012 4.68757 12.2715 4.68757C11.7418 4.68757 11.3124 4.25817 11.3124 3.72846C11.3124 3.19876 11.7418 2.76935 12.2715 2.76935C12.8012 2.76935 13.2306 3.19876 13.2306 3.72846Z" fill="#E9FEFC"/>
</svg>
