<svg width="13" height="14" viewBox="0 0 13 14" fill="none" xmlns="http://www.w3.org/2000/svg">
<path d="M5.64145 1.299C6.03545 0.689551 6.92702 0.689551 7.32102 1.299L8.83081 3.63437C8.96575 3.84308 9.17357 3.99407 9.41377 4.05791L12.1014 4.77213C12.8028 4.95852 13.0783 5.80646 12.6204 6.36951L10.8659 8.52707C10.7091 8.7199 10.6297 8.9642 10.6432 9.21237L10.7945 11.9892C10.8339 12.7138 10.1126 13.2379 9.43566 12.9764L6.84152 11.9745C6.60968 11.8849 6.35279 11.8849 6.12095 11.9745L3.52681 12.9764C2.84983 13.2379 2.12853 12.7138 2.168 11.9892L2.31925 9.21237C2.33277 8.9642 2.25339 8.7199 2.09658 8.52707L0.34207 6.36951C-0.115797 5.80646 0.159715 4.95852 0.861087 4.77213L3.5487 4.05791C3.7889 3.99407 3.99673 3.84308 4.13166 3.63436L5.64145 1.299Z" fill="#EACA5A"/>
</svg>
