<svg width="32" height="23" viewBox="0 0 32 23" fill="none" xmlns="http://www.w3.org/2000/svg">
<rect x="0.5" y="0.5" width="30.8007" height="21.5366" rx="2" fill="white" stroke="#D9D9D9"/>
<path fill-rule="evenodd" clip-rule="evenodd" d="M9.71331 15.2671H7.7868L6.34216 9.57111C6.27359 9.3091 6.128 9.07746 5.91383 8.96829C5.37937 8.69393 4.79043 8.47558 4.14795 8.36546V8.14616H7.2514C7.67972 8.14616 8.00096 8.47558 8.0545 8.85816L8.80406 12.9669L10.7296 8.14616H12.6026L9.71331 15.2671ZM13.6734 15.2671H11.854L13.3521 8.14616H15.1716L13.6734 15.2671ZM17.5255 10.1189C17.579 9.73535 17.9003 9.51606 18.275 9.51606C18.864 9.461 19.5055 9.57112 20.0409 9.84453L20.3622 8.31135C19.8268 8.09206 19.2378 7.98193 18.7034 7.98193C16.9375 7.98193 15.6525 8.96829 15.6525 10.3372C15.6525 11.3787 16.5627 11.9255 17.2052 12.2549C17.9003 12.5834 18.168 12.8027 18.1144 13.1311C18.1144 13.6238 17.579 13.8431 17.0446 13.8431C16.4021 13.8431 15.7596 13.6789 15.1716 13.4045L14.8503 14.9387C15.4928 15.2121 16.1879 15.3222 16.8304 15.3222C18.8104 15.3763 20.0409 14.3909 20.0409 12.9118C20.0409 11.0492 17.5255 10.9401 17.5255 10.1189ZM26.4085 15.2671L24.9638 8.14616H23.4121C23.0908 8.14616 22.7696 8.36546 22.6625 8.69393L19.9874 15.2671H21.8604L22.2342 14.2266H24.5355L24.7496 15.2671H26.4085ZM23.6798 10.0638L24.2142 12.7476H22.716L23.6798 10.0638Z" fill="#172B85"/>
</svg>
